QuadrillionMonoline-Regular.ufo
<glyph name="exclam" format="2">
  <advance width="224"/>
  <unicode hex="0021"/>
  <outline>
    <contour>
      <point x="112.0" y="700.0" type="curve" smooth="yes"/>
      <point x="140.0" y="700.0"/>
      <point x="162.0" y="678.0"/>
      <point x="162.0" y="650.0" type="curve" smooth="yes"/>
      <point x="162.0" y="225.0" type="line" smooth="yes"/>
      <point x="162.0" y="197.0"/>
      <point x="140.0" y="175.0"/>
      <point x="112.0" y="175.0" type="curve" smooth="yes"/>
      <point x="84.0" y="175.0"/>
      <point x="62.0" y="197.0"/>
      <point x="62.0" y="225.0" type="curve" smooth="yes"/>
      <point x="62.0" y="650.0" type="line" smooth="yes"/>
      <point x="62.0" y="678.0"/>
      <point x="84.0" y="700.0"/>
    </contour>
    <contour>
      <point x="112.0" y="125.0" type="curve" smooth="yes"/>
      <point x="146.0" y="125.0"/>
      <point x="174.0" y="96.0"/>
      <point x="174.0" y="62.0" type="curve" smooth="yes"/>
      <point x="174.0" y="28.0"/>
      <point x="146.0" y="0.0"/>
      <point x="112.0" y="0.0" type="curve" smooth="yes"/>
      <point x="78.0" y="0.0"/>
      <point x="50.0" y="28.0"/>
      <point x="50.0" y="62.0" type="curve" smooth="yes"/>
      <point x="50.0" y="96.0"/>
      <point x="78.0" y="125.0"/>
    </contour>
  </outline>
</glyph>
<glyph name="quotesingle" format="2">
  <advance width="200"/>
  <unicode hex="0027"/>
  <outline>
    <contour>
      <point x="100.0" y="700.0" type="curve" smooth="yes"/>
      <point x="128.0" y="700.0"/>
      <point x="150.0" y="678.0"/>
      <point x="150.0" y="650.0" type="curve" smooth="yes"/>
      <point x="150.0" y="550.0" type="line" smooth="yes"/>
      <point x="150.0" y="522.0"/>
      <point x="128.0" y="500.0"/>
      <point x="100.0" y="500.0" type="curve" smooth="yes"/>
      <point x="72.0" y="500.0"/>
      <point x="50.0" y="522.0"/>
      <point x="50.0" y="550.0" type="curve" smooth="yes"/>
      <point x="50.0" y="650.0" type="line" smooth="yes"/>
      <point x="50.0" y="678.0"/>
      <point x="72.0" y="700.0"/>
    </contour>
  </outline>
</glyph>
<glyph name="comma" format="2">
  <advance width="250"/>
  <unicode hex="002C"/>
  <outline>
    <contour>
      <point x="100.0" y="-100.0" type="curve" smooth="yes"/>
      <point x="73.0" y="-100.0"/>
      <point x="50.0" y="-79.0"/>
      <point x="50.0" y="-50.0" type="curve" smooth="yes"/>
      <point x="50.0" y="-33.0"/>
      <point x="59.0" y="-17.0"/>
      <point x="72.0" y="-8.0" type="curve" smooth="yes"/>
      <point x="86.0" y="2.0"/>
      <point x="91.0" y="7.0"/>
      <point x="94.0" y="13.0" type="curve" smooth="yes"/>
      <point x="97.0" y="19.0"/>
      <point x="100.0" y="29.0"/>
      <point x="100.0" y="50.0" type="curve" smooth="yes"/>
      <point x="100.0" y="78.0"/>
      <point x="122.0" y="100.0"/>
      <point x="150.0" y="100.0" type="curve" smooth="yes"/>
      <point x="178.0" y="100.0"/>
      <point x="200.0" y="78.0"/>
      <point x="200.0" y="50.0" type="curve" smooth="yes"/>
      <point x="200.0" y="21.0"/>
      <point x="197.0" y="-7.0"/>
      <point x="184.0" y="-32.0" type="curve" smooth="yes"/>
      <point x="171.0" y="-57.0"/>
      <point x="151.0" y="-77.0"/>
      <point x="128.0" y="-92.0" type="curve" smooth="yes"/>
      <point x="120.0" y="-97.0"/>
      <point x="110.0" y="-100.0"/>
    </contour>
  </outline>
</glyph>
<glyph name="hyphen" format="2">
  <advance width="400"/>
  <unicode hex="002D"/>
  <outline>
    <contour>
      <point x="100.0" y="300.0" type="curve" smooth="yes"/>
      <point x="300.0" y="300.0" type="line" smooth="yes"/>
      <point x="328.0" y="300.0"/>
      <point x="350.0" y="278.0"/>
      <point x="350.0" y="250.0" type="curve" smooth="yes"/>
      <point x="350.0" y="222.0"/>
      <point x="328.0" y="200.0"/>
      <point x="300.0" y="200.0" type="curve" smooth="yes"/>
      <point x="100.0" y="200.0" type="line" smooth="yes"/>
      <point x="72.0" y="200.0"/>
      <point x="50.0" y="222.0"/>
      <point x="50.0" y="250.0" type="curve" smooth="yes"/>
      <point x="50.0" y="278.0"/>
      <point x="72.0" y="300.0"/>
    </contour>
  </outline>
</glyph>
<glyph name="period" format="2">
  <advance width="224"/>
  <unicode hex="002E"/>
  <outline>
    <contour>
      <point x="112.0" y="125.0" type="curve" smooth="yes"/>
      <point x="146.0" y="125.0"/>
      <point x="174.0" y="96.0"/>
      <point x="174.0" y="62.0" type="curve" smooth="yes"/>
      <point x="174.0" y="28.0"/>
      <point x="146.0" y="0.0"/>
      <point x="112.0" y="0.0" type="curve" smooth="yes"/>
      <point x="78.0" y="0.0"/>
      <point x="50.0" y="28.0"/>
      <point x="50.0" y="62.0" type="curve" smooth="yes"/>
      <point x="50.0" y="96.0"/>
      <point x="78.0" y="125.0"/>
    </contour>
  </outline>
</glyph>
<glyph name="zero" format="2">
  <advance width="500"/>
  <unicode hex="0030"/>
  <outline>
    <contour>
      <point x="250.0" y="700.0" type="curve" smooth="yes"/>
      <point x="353.0" y="700.0"/>
      <point x="450.0" y="616.0"/>
      <point x="450.0" y="500.0" type="curve" smooth="yes"/>
      <point x="450.0" y="200.0" type="line" smooth="yes"/>
      <point x="450.0" y="84.0"/>
      <point x="353.0" y="0.0"/>
      <point x="250.0" y="0.0" type="curve" smooth="yes"/>
      <point x="147.0" y="0.0"/>
      <point x="50.0" y="84.0"/>
      <point x="50.0" y="200.0" type="curve" smooth="yes"/>
      <point x="50.0" y="500.0" type="line" smooth="yes"/>
      <point x="50.0" y="616.0"/>
      <point x="147.0" y="700.0"/>
    </contour>
    <contour>
      <point x="250.0" y="600.0" type="curve" smooth="yes"/>
      <point x="203.0" y="600.0"/>
      <point x="150.0" y="559.0"/>
      <point x="150.0" y="500.0" type="curve" smooth="yes"/>
      <point x="150.0" y="200.0" type="line" smooth="yes"/>
      <point x="150.0" y="141.0"/>
      <point x="203.0" y="100.0"/>
      <point x="250.0" y="100.0" type="curve" smooth="yes"/>
      <point x="297.0" y="100.0"/>
      <point x="350.0" y="141.0"/>
      <point x="350.0" y="200.0" type="curve" smooth="yes"/>
      <point x="350.0" y="500.0" type="line" smooth="yes"/>
      <point x="350.0" y="559.0"/>
      <point x="297.0" y="600.0"/>
    </contour>
  </outline>
</glyph>
<glyph name="one" format="2">
  <advance width="300"/>
  <unicode hex="0031"/>
  <outline>
    <contour>
      <point x="100.0" y="500.0" type="curve" smooth="yes"/>
      <point x="72.0" y="500.0"/>
      <point x="50.0" y="522.0"/>
      <point x="50.0" y="550.0" type="curve" smooth="yes"/>
      <point x="50.0" y="564.0"/>
      <point x="56.0" y="576.0"/>
      <point x="65.0" y="585.0" type="curve" smooth="yes"/>
      <point x="165.0" y="685.0" type="line" smooth="yes"/>
      <point x="174.0" y="694.0"/>
      <point x="186.0" y="700.0"/>
      <point x="200.0" y="700.0" type="curve" smooth="yes"/>
      <point x="228.0" y="700.0"/>
      <point x="250.0" y="678.0"/>
      <point x="250.0" y="650.0" type="curve" smooth="yes"/>
      <point x="250.0" y="50.0" type="line" smooth="yes"/>
      <point x="250.0" y="22.0"/>
      <point x="228.0" y="0.0"/>
      <point x="200.0" y="0.0" type="curve" smooth="yes"/>
      <point x="172.0" y="0.0"/>
      <point x="150.0" y="22.0"/>
      <point x="150.0" y="50.0" type="curve" smooth="yes"/>
      <point x="150.0" y="529.0" type="line"/>
      <point x="135.0" y="515.0" type="line" smooth="yes"/>
      <point x="126.0" y="506.0"/>
      <point x="114.0" y="500.0"/>
    </contour>
  </outline>
</glyph>
<glyph name="two" format="2">
  <advance width="500"/>
  <unicode hex="0032"/>
  <outline>
    <contour>
      <point x="100.0" y="550.0" type="curve" smooth="yes"/>
      <point x="73.0" y="550.0"/>
      <point x="50.0" y="572.0"/>
      <point x="50.0" y="600.0" type="curve" smooth="yes"/>
      <point x="50.0" y="616.0"/>
      <point x="58.0" y="630.0"/>
      <point x="69.0" y="639.0" type="curve" smooth="yes"/>
      <point x="142.0" y="697.0"/>
      <point x="212.0" y="700.0"/>
      <point x="250.0" y="700.0" type="curve" smooth="yes"/>
      <point x="353.0" y="700.0"/>
      <point x="450.0" y="616.0"/>
      <point x="450.0" y="500.0" type="curve" smooth="yes"/>
      <point x="450.0" y="393.0"/>
      <point x="387.0" y="329.0"/>
      <point x="339.0" y="269.0" type="curve" smooth="yes"/>
      <point x="204.0" y="100.0" type="line"/>
      <point x="400.0" y="100.0" type="line" smooth="yes"/>
      <point x="428.0" y="100.0"/>
      <point x="450.0" y="78.0"/>
      <point x="450.0" y="50.0" type="curve" smooth="yes"/>
      <point x="450.0" y="22.0"/>
      <point x="428.0" y="0.0"/>
      <point x="400.0" y="0.0" type="curve" smooth="yes"/>
      <point x="100.0" y="0.0" type="line" smooth="yes"/>
      <point x="72.0" y="0.0"/>
      <point x="50.0" y="22.0"/>
      <point x="50.0" y="50.0" type="curve" smooth="yes"/>
      <point x="50.0" y="62.0"/>
      <point x="54.0" y="72.0"/>
      <point x="61.0" y="81.0" type="curve" smooth="yes"/>
      <point x="261.0" y="331.0" type="line" smooth="yes"/>
      <point x="313.0" y="396.0"/>
      <point x="350.0" y="432.0"/>
      <point x="350.0" y="500.0" type="curve" smooth="yes"/>
      <point x="350.0" y="559.0"/>
      <point x="297.0" y="600.0"/>
      <point x="250.0" y="600.0" type="curve" smooth="yes"/>
      <point x="246.0" y="600.0"/>
      <point x="241.0" y="600.0"/>
      <point x="237.0" y="600.0" type="curve" smooth="yes"/>
      <point x="205.0" y="600.0"/>
      <point x="177.0" y="598.0"/>
      <point x="131.0" y="561.0" type="curve" smooth="yes"/>
      <point x="122.0" y="554.0"/>
      <point x="112.0" y="550.0"/>
    </contour>
  </outline>
</glyph>
<glyph name="three" format="2">
  <advance width="500"/>
  <unicode hex="0033"/>
  <outline>
    <contour>
      <point x="100.0" y="550.0" type="curve" smooth="yes"/>
      <point x="73.0" y="550.0"/>
      <point x="50.0" y="572.0"/>
      <point x="50.0" y="600.0" type="curve" smooth="yes"/>
      <point x="50.0" y="616.0"/>
      <point x="58.0" y="630.0"/>
      <point x="69.0" y="639.0" type="curve" smooth="yes"/>
      <point x="142.0" y="697.0"/>
      <point x="212.0" y="700.0"/>
      <point x="250.0" y="700.0" type="curve" smooth="yes"/>
      <point x="353.0" y="700.0"/>
      <point x="450.0" y="616.0"/>
      <point x="450.0" y="500.0" type="curve" smooth="yes"/>
      <point x="450.0" y="438.0"/>
      <point x="422.0" y="386.0"/>
      <point x="381.0" y="350.0" type="curve"/>
      <point x="422.0" y="314.0"/>
      <point x="450.0" y="262.0"/>
      <point x="450.0" y="200.0" type="curve" smooth="yes"/>
      <point x="450.0" y="84.0"/>
      <point x="353.0" y="0.0"/>
      <point x="250.0" y="0.0" type="curve" smooth="yes"/>
      <point x="212.0" y="0.0"/>
      <point x="142.0" y="3.0"/>
      <point x="69.0" y="61.0" type="curve" smooth="yes"/>
      <point x="58.0" y="70.0"/>
      <point x="50.0" y="84.0"/>
      <point x="50.0" y="100.0" type="curve" smooth="yes"/>
      <point x="50.0" y="128.0"/>
      <point x="73.0" y="150.0"/>
      <point x="100.0" y="150.0" type="curve" smooth="yes"/>
      <point x="112.0" y="150.0"/>
      <point x="122.0" y="146.0"/>
      <point x="131.0" y="139.0" type="curve" smooth="yes"/>
      <point x="177.0" y="102.0"/>
      <point x="205.0" y="100.0"/>
      <point x="237.0" y="100.0" type="curve" smooth="yes"/>
      <point x="241.0" y="100.0"/>
      <point x="246.0" y="100.0"/>
      <point x="250.0" y="100.0" type="curve" smooth="yes"/>
      <point x="297.0" y="100.0"/>
      <point x="350.0" y="141.0"/>
      <point x="350.0" y="200.0" type="curve" smooth="yes"/>
      <point x="350.0" y="259.0"/>
      <point x="297.0" y="300.0"/>
      <point x="250.0" y="300.0" type="curve" smooth="yes"/>
      <point x="200.0" y="300.0" type="line" smooth="yes"/>
      <point x="172.0" y="300.0"/>
      <point x="150.0" y="322.0"/>
      <point x="150.0" y="350.0" type="curve" smooth="yes"/>
      <point x="150.0" y="378.0"/>
      <point x="172.0" y="400.0"/>
      <point x="200.0" y="400.0" type="curve" smooth="yes"/>
      <point x="250.0" y="400.0" type="line" smooth="yes"/>
      <point x="297.0" y="400.0"/>
      <point x="350.0" y="441.0"/>
      <point x="350.0" y="500.0" type="curve" smooth="yes"/>
      <point x="350.0" y="559.0"/>
      <point x="297.0" y="600.0"/>
      <point x="250.0" y="600.0" type="curve" smooth="yes"/>
      <point x="246.0" y="600.0"/>
      <point x="241.0" y="600.0"/>
      <point x="237.0" y="600.0" type="curve" smooth="yes"/>
      <point x="205.0" y="600.0"/>
      <point x="177.0" y="598.0"/>
      <point x="131.0" y="561.0" type="curve" smooth="yes"/>
      <point x="122.0" y="554.0"/>
      <point x="112.0" y="550.0"/>
    </contour>
  </outline>
</glyph>
<glyph name="four" format="2">
  <advance width="500"/>
  <unicode hex="0034"/>
  <outline>
    <contour>
      <point x="300.0" y="687.0" type="line" smooth="yes"/>
      <point x="330.0" y="687.0"/>
      <point x="350.0" y="663.0"/>
      <point x="350.0" y="637.0" type="curve" smooth="yes"/>
      <point x="350.0" y="630.0"/>
      <point x="348.0" y="625.0"/>
      <point x="346.0" y="619.0" type="curve" smooth="yes"/>
      <point x="175.0" y="200.0" type="line"/>
      <point x="300.0" y="200.0" type="line"/>
      <point x="300.0" y="300.0" type="line" smooth="yes"/>
      <point x="300.0" y="328.0"/>
      <point x="322.0" y="350.0"/>
      <point x="350.0" y="350.0" type="curve" smooth="yes"/>
      <point x="378.0" y="350.0"/>
      <point x="400.0" y="328.0"/>
      <point x="400.0" y="300.0" type="curve" smooth="yes"/>
      <point x="400.0" y="200.0" type="line"/>
      <point x="428.0" y="200.0"/>
      <point x="450.0" y="178.0"/>
      <point x="450.0" y="150.0" type="curve" smooth="yes"/>
      <point x="450.0" y="122.0"/>
      <point x="428.0" y="100.0"/>
      <point x="400.0" y="100.0" type="curve"/>
      <point x="400.0" y="50.0" type="line" smooth="yes"/>
      <point x="400.0" y="22.0"/>
      <point x="378.0" y="0.0"/>
      <point x="350.0" y="0.0" type="curve" smooth="yes"/>
      <point x="322.0" y="0.0"/>
      <point x="300.0" y="22.0"/>
      <point x="300.0" y="50.0" type="curve" smooth="yes"/>
      <point x="300.0" y="100.0" type="line"/>
      <point x="100.0" y="100.0" type="line" smooth="yes"/>
      <point x="72.0" y="100.0"/>
      <point x="50.0" y="122.0"/>
      <point x="50.0" y="150.0" type="curve" smooth="yes"/>
      <point x="50.0" y="157.0"/>
      <point x="52.0" y="163.0"/>
      <point x="54.0" y="169.0" type="curve" smooth="yes"/>
      <point x="254.0" y="656.0" type="line" smooth="yes"/>
      <point x="261.0" y="674.0"/>
      <point x="279.0" y="688.0"/>
      <point x="300.0" y="688.0" type="curve" smooth="yes"/>
    </contour>
  </outline>
</glyph>
<glyph name="five" format="2">
  <advance width="500"/>
  <unicode hex="0035"/>
  <outline>
    <contour>
      <point x="50.0" y="100.0" type="curve" smooth="yes"/>
      <point x="50.0" y="128.0"/>
      <point x="73.0" y="150.0"/>
      <point x="100.0" y="150.0" type="curve" smooth="yes"/>
      <point x="112.0" y="150.0"/>
      <point x="122.0" y="146.0"/>
      <point x="131.0" y="139.0" type="curve" smooth="yes"/>
      <point x="177.0" y="102.0"/>
      <point x="205.0" y="100.0"/>
      <point x="237.0" y="100.0" type="curve" smooth="yes"/>
      <point x="241.0" y="100.0"/>
      <point x="246.0" y="100.0"/>
      <point x="250.0" y="100.0" type="curve" smooth="yes"/>
      <point x="297.0" y="100.0"/>
      <point x="350.0" y="141.0"/>
      <point x="350.0" y="200.0" type="curve" smooth="yes"/>
      <point x="350.0" y="250.0" type="line" smooth="yes"/>
      <point x="350.0" y="309.0"/>
      <point x="297.0" y="350.0"/>
      <point x="250.0" y="350.0" type="curve" smooth="yes"/>
      <point x="246.0" y="350.0"/>
      <point x="241.0" y="350.0"/>
      <point x="237.0" y="350.0" type="curve" smooth="yes"/>
      <point x="205.0" y="350.0"/>
      <point x="177.0" y="348.0"/>
      <point x="131.0" y="311.0" type="curve" smooth="yes"/>
      <point x="122.0" y="304.0"/>
      <point x="112.0" y="300.0"/>
      <point x="100.0" y="300.0" type="curve" smooth="yes"/>
      <point x="72.0" y="300.0"/>
      <point x="50.0" y="322.0"/>
      <point x="50.0" y="350.0" type="curve" smooth="yes"/>
      <point x="50.0" y="650.0" type="line" smooth="yes"/>
      <point x="50.0" y="678.0"/>
      <point x="72.0" y="700.0"/>
      <point x="100.0" y="700.0" type="curve" smooth="yes"/>
      <point x="400.0" y="700.0" type="line" smooth="yes"/>
      <point x="428.0" y="700.0"/>
      <point x="450.0" y="678.0"/>
      <point x="450.0" y="650.0" type="curve" smooth="yes"/>
      <point x="450.0" y="622.0"/>
      <point x="428.0" y="600.0"/>
      <point x="400.0" y="600.0" type="curve" smooth="yes"/>
      <point x="150.0" y="600.0" type="line"/>
      <point x="150.0" y="434.0" type="line"/>
      <point x="191.0" y="448.0"/>
      <point x="227.0" y="450.0"/>
      <point x="250.0" y="450.0" type="curve" smooth="yes"/>
      <point x="353.0" y="450.0"/>
      <point x="450.0" y="366.0"/>
      <point x="450.0" y="250.0" type="curve" smooth="yes"/>
      <point x="450.0" y="200.0" type="line" smooth="yes"/>
      <point x="450.0" y="84.0"/>
      <point x="353.0" y="0.0"/>
      <point x="250.0" y="0.0" type="curve" smooth="yes"/>
      <point x="212.0" y="0.0"/>
      <point x="142.0" y="3.0"/>
      <point x="69.0" y="61.0" type="curve" smooth="yes"/>
      <point x="58.0" y="70.0"/>
      <point x="50.0" y="84.0"/>
    </contour>
  </outline>
</glyph>
<glyph name="seven" format="2">
  <advance width="500"/>
  <unicode hex="0037"/>
  <outline>
    <contour>
      <point x="200.0" y="0.0" type="curve" smooth="yes"/>
      <point x="170.0" y="0.0"/>
      <point x="150.0" y="24.0"/>
      <point x="150.0" y="50.0" type="curve" smooth="yes"/>
      <point x="150.0" y="56.0"/>
      <point x="151.0" y="61.0"/>
      <point x="153.0" y="66.0" type="curve" smooth="yes"/>
      <point x="331.0" y="600.0" type="line"/>
      <point x="150.0" y="600.0" type="line"/>
      <point x="150.0" y="550.0" type="line" smooth="yes"/>
      <point x="150.0" y="522.0"/>
      <point x="128.0" y="500.0"/>
      <point x="100.0" y="500.0" type="curve" smooth="yes"/>
      <point x="72.0" y="500.0"/>
      <point x="50.0" y="522.0"/>
      <point x="50.0" y="550.0" type="curve" smooth="yes"/>
      <point x="50.0" y="650.0" type="line" smooth="yes"/>
      <point x="50.0" y="678.0"/>
      <point x="72.0" y="700.0"/>
      <point x="100.0" y="700.0" type="curve" smooth="yes"/>
      <point x="400.0" y="700.0" type="line" smooth="yes"/>
      <point x="428.0" y="700.0"/>
      <point x="450.0" y="678.0"/>
      <point x="450.0" y="650.0" type="curve" smooth="yes"/>
      <point x="450.0" y="644.0"/>
      <point x="449.0" y="639.0"/>
      <point x="447.0" y="634.0" type="curve" smooth="yes"/>
      <point x="247.0" y="34.0" type="line" smooth="yes"/>
      <point x="240.0" y="14.0"/>
      <point x="222.0" y="0.0"/>
    </contour>
  </outline>
</glyph>
<glyph name="eight" format="2">
  <advance width="500"/>
  <unicode hex="0038"/>
  <outline>
    <contour>
      <point x="250.0" y="700.0" type="curve" smooth="yes"/>
      <point x="353.0" y="700.0"/>
      <point x="438.0" y="613.0"/>
      <point x="438.0" y="506.0" type="curve" smooth="yes"/>
      <point x="438.0" y="450.0"/>
      <point x="414.0" y="400.0"/>
      <point x="378.0" y="365.0" type="curve"/>
      <point x="421.0" y="329.0"/>
      <point x="450.0" y="275.0"/>
      <point x="450.0" y="212.0" type="curve" smooth="yes"/>
      <point x="450.0" y="200.0" type="line" smooth="yes"/>
      <point x="450.0" y="84.0"/>
      <point x="353.0" y="0.0"/>
      <point x="250.0" y="0.0" type="curve" smooth="yes"/>
      <point x="147.0" y="0.0"/>
      <point x="50.0" y="84.0"/>
      <point x="50.0" y="200.0" type="curve" smooth="yes"/>
      <point x="50.0" y="212.0" type="line" smooth="yes"/>
      <point x="50.0" y="275.0"/>
      <point x="79.0" y="329.0"/>
      <point x="122.0" y="365.0" type="curve"/>
      <point x="86.0" y="400.0"/>
      <point x="62.0" y="450.0"/>
      <point x="62.0" y="506.0" type="curve" smooth="yes"/>
      <point x="62.0" y="613.0"/>
      <point x="147.0" y="700.0"/>
    </contour>
    <contour>
      <point x="250.0" y="600.0" type="curve" smooth="yes"/>
      <point x="203.0" y="600.0"/>
      <point x="162.0" y="562.0"/>
      <point x="162.0" y="506.0" type="curve" smooth="yes"/>
      <point x="162.0" y="450.0"/>
      <point x="203.0" y="412.0"/>
      <point x="250.0" y="412.0" type="curve" smooth="yes"/>
      <point x="297.0" y="412.0"/>
      <point x="338.0" y="450.0"/>
      <point x="338.0" y="506.0" type="curve" smooth="yes"/>
      <point x="338.0" y="562.0"/>
      <point x="297.0" y="600.0"/>
    </contour>
    <contour>
      <point x="250.0" y="312.0" type="curve" smooth="yes"/>
      <point x="203.0" y="312.0"/>
      <point x="150.0" y="271.0"/>
      <point x="150.0" y="212.0" type="curve" smooth="yes"/>
      <point x="150.0" y="200.0" type="line" smooth="yes"/>
      <point x="150.0" y="141.0"/>
      <point x="203.0" y="100.0"/>
      <point x="250.0" y="100.0" type="curve" smooth="yes"/>
      <point x="297.0" y="100.0"/>
      <point x="350.0" y="141.0"/>
      <point x="350.0" y="200.0" type="curve" smooth="yes"/>
      <point x="350.0" y="212.0" type="line" smooth="yes"/>
      <point x="350.0" y="271.0"/>
      <point x="297.0" y="312.0"/>
    </contour>
  </outline>
</glyph>
<glyph name="nine" format="2">
  <advance width="500"/>
  <unicode hex="0039"/>
  <outline>
    <contour>
      <point x="62.0" y="100.0" type="curve" smooth="yes"/>
      <point x="62.0" y="128.0"/>
      <point x="85.0" y="150.0"/>
      <point x="113.0" y="150.0" type="curve" smooth="yes"/>
      <point x="127.0" y="150.0"/>
      <point x="139.0" y="144.0"/>
      <point x="148.0" y="135.0" type="curve" smooth="yes"/>
      <point x="181.0" y="102.0"/>
      <point x="206.0" y="100.0"/>
      <point x="236.0" y="100.0" type="curve" smooth="yes"/>
      <point x="241.0" y="100.0"/>
      <point x="245.0" y="100.0"/>
      <point x="250.0" y="100.0" type="curve" smooth="yes"/>
      <point x="297.0" y="100.0"/>
      <point x="350.0" y="141.0"/>
      <point x="350.0" y="200.0" type="curve" smooth="yes"/>
      <point x="350.0" y="277.0" type="line"/>
      <point x="320.0" y="259.0"/>
      <point x="285.0" y="250.0"/>
      <point x="250.0" y="250.0" type="curve" smooth="yes"/>
      <point x="147.0" y="250.0"/>
      <point x="50.0" y="334.0"/>
      <point x="50.0" y="450.0" type="curve" smooth="yes"/>
      <point x="50.0" y="500.0" type="line" smooth="yes"/>
      <point x="50.0" y="616.0"/>
      <point x="147.0" y="700.0"/>
      <point x="250.0" y="700.0" type="curve" smooth="yes"/>
      <point x="353.0" y="700.0"/>
      <point x="450.0" y="616.0"/>
      <point x="450.0" y="500.0" type="curve" smooth="yes"/>
      <point x="450.0" y="400.0"/>
      <point x="450.0" y="300.0"/>
      <point x="450.0" y="200.0" type="curve" smooth="yes"/>
      <point x="450.0" y="84.0"/>
      <point x="353.0" y="0.0"/>
      <point x="250.0" y="0.0" type="curve" smooth="yes"/>
      <point x="212.0" y="0.0"/>
      <point x="139.0" y="3.0"/>
      <point x="77.0" y="65.0" type="curve" smooth="yes"/>
      <point x="68.0" y="74.0"/>
      <point x="62.0" y="86.0"/>
    </contour>
    <contour>
      <point x="250.0" y="600.0" type="curve" smooth="yes"/>
      <point x="203.0" y="600.0"/>
      <point x="150.0" y="559.0"/>
      <point x="150.0" y="500.0" type="curve" smooth="yes"/>
      <point x="150.0" y="450.0" type="line" smooth="yes"/>
      <point x="150.0" y="391.0"/>
      <point x="203.0" y="350.0"/>
      <point x="250.0" y="350.0" type="curve" smooth="yes"/>
      <point x="297.0" y="350.0"/>
      <point x="350.0" y="391.0"/>
      <point x="350.0" y="450.0" type="curve" smooth="yes"/>
      <point x="350.0" y="500.0" type="line" smooth="yes"/>
      <point x="350.0" y="559.0"/>
      <point x="297.0" y="600.0"/>
    </contour>
  </outline>
</glyph>
<glyph name="question" format="2">
  <advance width="500"/>
  <unicode hex="003F"/>
  <outline>
    <contour>
      <point x="100.0" y="500.0" type="curve" smooth="yes"/>
      <point x="70.0" y="500.0"/>
      <point x="50.0" y="524.0"/>
      <point x="50.0" y="550.0" type="curve" smooth="yes"/>
      <point x="50.0" y="556.0"/>
      <point x="51.0" y="561.0"/>
      <point x="53.0" y="566.0" type="curve" smooth="yes"/>
      <point x="80.0" y="648.0"/>
      <point x="150.0" y="700.0"/>
      <point x="250.0" y="700.0" type="curve" smooth="yes"/>
      <point x="361.0" y="700.0"/>
      <point x="450.0" y="611.0"/>
      <point x="450.0" y="500.0" type="curve" smooth="yes"/>
      <point x="450.0" y="452.0"/>
      <point x="438.0" y="412.0"/>
      <point x="418.0" y="383.0" type="curve" smooth="yes"/>
      <point x="398.0" y="354.0"/>
      <point x="374.0" y="336.0"/>
      <point x="355.0" y="322.0" type="curve" smooth="yes"/>
      <point x="336.0" y="308.0"/>
      <point x="323.0" y="298.0"/>
      <point x="315.0" y="286.0" type="curve" smooth="yes"/>
      <point x="307.0" y="274.0"/>
      <point x="300.0" y="258.0"/>
      <point x="300.0" y="225.0" type="curve" smooth="yes"/>
      <point x="300.0" y="197.0"/>
      <point x="278.0" y="175.0"/>
      <point x="250.0" y="175.0" type="curve" smooth="yes"/>
      <point x="222.0" y="175.0"/>
      <point x="200.0" y="197.0"/>
      <point x="200.0" y="225.0" type="curve" smooth="yes"/>
      <point x="200.0" y="273.0"/>
      <point x="212.0" y="313.0"/>
      <point x="232.0" y="342.0" type="curve" smooth="yes"/>
      <point x="252.0" y="371.0"/>
      <point x="276.0" y="388.0"/>
      <point x="295.0" y="402.0" type="curve" smooth="yes"/>
      <point x="314.0" y="416.0"/>
      <point x="327.0" y="427.0"/>
      <point x="335.0" y="439.0" type="curve" smooth="yes"/>
      <point x="343.0" y="451.0"/>
      <point x="350.0" y="467.0"/>
      <point x="350.0" y="500.0" type="curve" smooth="yes"/>
      <point x="350.0" y="564.0"/>
      <point x="314.0" y="600.0"/>
      <point x="250.0" y="600.0" type="curve" smooth="yes"/>
      <point x="193.0" y="600.0"/>
      <point x="163.0" y="581.0"/>
      <point x="147.0" y="534.0" type="curve" smooth="yes"/>
      <point x="140.0" y="514.0"/>
      <point x="122.0" y="500.0"/>
    </contour>
    <contour>
      <point x="250.0" y="125.0" type="curve" smooth="yes"/>
      <point x="284.0" y="125.0"/>
      <point x="312.0" y="96.0"/>
      <point x="312.0" y="62.0" type="curve" smooth="yes"/>
      <point x="312.0" y="28.0"/>
      <point x="284.0" y="0.0"/>
      <point x="250.0" y="0.0" type="curve" smooth="yes"/>
      <point x="216.0" y="0.0"/>
      <point x="188.0" y="28.0"/>
      <point x="188.0" y="62.0" type="curve" smooth="yes"/>
      <point x="188.0" y="96.0"/>
      <point x="216.0" y="125.0"/>
    </contour>
  </outline>
</glyph>
<glyph name="A" format="2">
  <advance width="750"/>
  <unicode hex="0041"/>
  <outline>
    <contour>
      <point x="125.0" y="0.0" type="curve" smooth="yes"/>
      <point x="95.0" y="0.0"/>
      <point x="75.0" y="24.0"/>
      <point x="75.0" y="50.0" type="curve" smooth="yes"/>
      <point x="75.0" y="57.0"/>
      <point x="77.0" y="63.0"/>
      <point x="79.0" y="69.0" type="curve" smooth="yes"/>
      <point x="329.0" y="669.0" type="line" smooth="yes"/>
      <point x="337.0" y="687.0"/>
      <point x="354.0" y="700.0"/>
      <point x="375.0" y="700.0" type="curve" smooth="yes"/>
      <point x="396.0" y="700.0"/>
      <point x="413.0" y="687.0"/>
      <point x="421.0" y="669.0" type="curve" smooth="yes"/>
      <point x="671.0" y="69.0" type="line" smooth="yes"/>
      <point x="673.0" y="63.0"/>
      <point x="675.0" y="57.0"/>
      <point x="675.0" y="50.0" type="curve" smooth="yes"/>
      <point x="675.0" y="24.0"/>
      <point x="655.0" y="0.0"/>
      <point x="625.0" y="0.0" type="curve" smooth="yes"/>
      <point x="604.0" y="0.0"/>
      <point x="587.0" y="13.0"/>
      <point x="579.0" y="31.0" type="curve" smooth="yes"/>
      <point x="529.0" y="150.0" type="line"/>
      <point x="221.0" y="150.0" type="line"/>
      <point x="171.0" y="31.0" type="line" smooth="yes"/>
      <point x="163.0" y="13.0"/>
      <point x="146.0" y="0.0"/>
    </contour>
    <contour>
      <point x="375.0" y="520.0" type="line"/>
      <point x="263.0" y="250.0" type="line"/>
      <point x="487.0" y="250.0" type="line"/>
    </contour>
  </outline>
</glyph>
<glyph name="B" format="2">
  <advance width="650"/>
  <unicode hex="0042"/>
  <outline>
    <contour>
      <point x="575.0" y="200.0" type="curve" smooth="yes"/>
      <point x="575.0" y="88.0"/>
      <point x="492.0" y="0.0"/>
      <point x="375.0" y="0.0" type="curve" smooth="yes"/>
      <point x="125.0" y="0.0" type="line" smooth="yes"/>
      <point x="97.0" y="0.0"/>
      <point x="75.0" y="22.0"/>
      <point x="75.0" y="50.0" type="curve" smooth="yes"/>
      <point x="75.0" y="250.0"/>
      <point x="75.0" y="450.0"/>
      <point x="75.0" y="650.0" type="curve" smooth="yes"/>
      <point x="75.0" y="678.0"/>
      <point x="97.0" y="700.0"/>
      <point x="125.0" y="700.0" type="curve" smooth="yes"/>
      <point x="375.0" y="700.0" type="line" smooth="yes"/>
      <point x="492.0" y="700.0"/>
      <point x="575.0" y="612.0"/>
      <point x="575.0" y="500.0" type="curve" smooth="yes"/>
      <point x="575.0" y="445.0"/>
      <point x="551.0" y="386.0"/>
      <point x="511.0" y="350.0" type="curve"/>
      <point x="551.0" y="314.0"/>
      <point x="575.0" y="255.0"/>
    </contour>
    <contour>
      <point x="475.0" y="500.0" type="curve" smooth="yes"/>
      <point x="475.0" y="559.0"/>
      <point x="439.0" y="600.0"/>
      <point x="375.0" y="600.0" type="curve" smooth="yes"/>
      <point x="175.0" y="600.0" type="line"/>
      <point x="175.0" y="400.0" type="line"/>
      <point x="375.0" y="400.0" type="line" smooth="yes"/>
      <point x="439.0" y="400.0"/>
      <point x="475.0" y="441.0"/>
    </contour>
    <contour>
      <point x="475.0" y="200.0" type="curve" smooth="yes"/>
      <point x="475.0" y="259.0"/>
      <point x="439.0" y="300.0"/>
      <point x="375.0" y="300.0" type="curve" smooth="yes"/>
      <point x="175.0" y="300.0" type="line"/>
      <point x="175.0" y="100.0" type="line"/>
      <point x="375.0" y="100.0" type="line" smooth="yes"/>
      <point x="439.0" y="100.0"/>
      <point x="475.0" y="141.0"/>
    </contour>
  </outline>
</glyph>
<glyph name="E" format="2">
  <advance width="650"/>
  <unicode hex="0045"/>
  <outline>
    <contour>
      <point x="125.0" y="700.0" type="curve" smooth="yes"/>
      <point x="525.0" y="700.0" type="line" smooth="yes"/>
      <point x="553.0" y="700.0"/>
      <point x="575.0" y="678.0"/>
      <point x="575.0" y="650.0" type="curve" smooth="yes"/>
      <point x="575.0" y="622.0"/>
      <point x="553.0" y="600.0"/>
      <point x="525.0" y="600.0" type="curve" smooth="yes"/>
      <point x="175.0" y="600.0" type="line"/>
      <point x="175.0" y="400.0" type="line"/>
      <point x="425.0" y="400.0" type="line" smooth="yes"/>
      <point x="453.0" y="400.0"/>
      <point x="475.0" y="378.0"/>
      <point x="475.0" y="350.0" type="curve" smooth="yes"/>
      <point x="475.0" y="322.0"/>
      <point x="453.0" y="300.0"/>
      <point x="425.0" y="300.0" type="curve" smooth="yes"/>
      <point x="175.0" y="300.0" type="line"/>
      <point x="175.0" y="100.0" type="line"/>
      <point x="525.0" y="100.0" type="line" smooth="yes"/>
      <point x="553.0" y="100.0"/>
      <point x="575.0" y="78.0"/>
      <point x="575.0" y="50.0" type="curve" smooth="yes"/>
      <point x="575.0" y="22.0"/>
      <point x="553.0" y="0.0"/>
      <point x="525.0" y="0.0" type="curve" smooth="yes"/>
      <point x="125.0" y="0.0" type="line" smooth="yes"/>
      <point x="97.0" y="0.0"/>
      <point x="75.0" y="22.0"/>
      <point x="75.0" y="50.0" type="curve" smooth="yes"/>
      <point x="75.0" y="250.0"/>
      <point x="75.0" y="450.0"/>
      <point x="75.0" y="650.0" type="curve" smooth="yes"/>
      <point x="75.0" y="678.0"/>
      <point x="97.0" y="700.0"/>
    </contour>
  </outline>
</glyph>
<glyph name="G" format="2">
  <advance width="650"/>
  <unicode hex="0047"/>
  <outline>
    <contour>
      <point x="550.0" y="550.0" type="curve" smooth="yes"/>
      <point x="550.0" y="524.0"/>
      <point x="529.0" y="500.0"/>
      <point x="500.0" y="500.0" type="curve" smooth="yes"/>
      <point x="482.0" y="500.0"/>
      <point x="466.0" y="509.0"/>
      <point x="457.0" y="524.0" type="curve" smooth="yes"/>
      <point x="428.0" y="573.0"/>
      <point x="383.0" y="600.0"/>
      <point x="325.0" y="600.0" type="curve" smooth="yes"/>
      <point x="227.0" y="600.0"/>
      <point x="175.0" y="525.0"/>
      <point x="175.0" y="450.0" type="curve" smooth="yes"/>
      <point x="175.0" y="250.0" type="line" smooth="yes"/>
      <point x="175.0" y="175.0"/>
      <point x="227.0" y="100.0"/>
      <point x="325.0" y="100.0" type="curve" smooth="yes"/>
      <point x="423.0" y="100.0"/>
      <point x="475.0" y="175.0"/>
      <point x="475.0" y="250.0" type="curve" smooth="yes"/>
      <point x="475.0" y="300.0" type="line"/>
      <point x="375.0" y="300.0" type="line" smooth="yes"/>
      <point x="347.0" y="300.0"/>
      <point x="325.0" y="322.0"/>
      <point x="325.0" y="350.0" type="curve" smooth="yes"/>
      <point x="325.0" y="378.0"/>
      <point x="347.0" y="400.0"/>
      <point x="375.0" y="400.0" type="curve" smooth="yes"/>
      <point x="525.0" y="400.0" type="line" smooth="yes"/>
      <point x="553.0" y="400.0"/>
      <point x="575.0" y="378.0"/>
      <point x="575.0" y="350.0" type="curve" smooth="yes"/>
      <point x="575.0" y="250.0" type="line" smooth="yes"/>
      <point x="575.0" y="125.0"/>
      <point x="477.0" y="0.0"/>
      <point x="325.0" y="0.0" type="curve" smooth="yes"/>
      <point x="173.0" y="0.0"/>
      <point x="75.0" y="125.0"/>
      <point x="75.0" y="250.0" type="curve" smooth="yes"/>
      <point x="75.0" y="450.0" type="line" smooth="yes"/>
      <point x="75.0" y="575.0"/>
      <point x="173.0" y="700.0"/>
      <point x="325.0" y="700.0" type="curve" smooth="yes"/>
      <point x="417.0" y="700.0"/>
      <point x="497.0" y="652.0"/>
      <point x="543.0" y="576.0" type="curve" smooth="yes"/>
      <point x="548.0" y="568.0"/>
      <point x="550.0" y="559.0"/>
    </contour>
  </outline>
</glyph>
<glyph name="H" format="2">
  <advance width="650"/>
  <unicode hex="0048"/>
  <outline>
    <contour>
      <point x="125.0" y="700.0" type="curve" smooth="yes"/>
      <point x="153.0" y="700.0"/>
      <point x="175.0" y="678.0"/>
      <point x="175.0" y="650.0" type="curve" smooth="yes"/>
      <point x="175.0" y="400.0" type="line"/>
      <point x="475.0" y="400.0" type="line"/>
      <point x="475.0" y="650.0" type="line" smooth="yes"/>
      <point x="475.0" y="678.0"/>
      <point x="497.0" y="700.0"/>
      <point x="525.0" y="700.0" type="curve" smooth="yes"/>
      <point x="553.0" y="700.0"/>
      <point x="575.0" y="678.0"/>
      <point x="575.0" y="650.0" type="curve" smooth="yes"/>
      <point x="575.0" y="450.0"/>
      <point x="575.0" y="250.0"/>
      <point x="575.0" y="50.0" type="curve" smooth="yes"/>
      <point x="575.0" y="22.0"/>
      <point x="553.0" y="0.0"/>
      <point x="525.0" y="0.0" type="curve" smooth="yes"/>
      <point x="497.0" y="0.0"/>
      <point x="475.0" y="22.0"/>
      <point x="475.0" y="50.0" type="curve" smooth="yes"/>
      <point x="475.0" y="300.0" type="line"/>
      <point x="175.0" y="300.0" type="line"/>
      <point x="175.0" y="50.0" type="line" smooth="yes"/>
      <point x="175.0" y="22.0"/>
      <point x="153.0" y="0.0"/>
      <point x="125.0" y="0.0" type="curve" smooth="yes"/>
      <point x="97.0" y="0.0"/>
      <point x="75.0" y="22.0"/>
      <point x="75.0" y="50.0" type="curve" smooth="yes"/>
      <point x="75.0" y="650.0" type="line" smooth="yes"/>
      <point x="75.0" y="678.0"/>
      <point x="97.0" y="700.0"/>
    </contour>
  </outline>
</glyph>
<glyph name="I" format="2">
  <advance width="250"/>
  <unicode hex="0049"/>
  <outline>
    <contour>
      <point x="125.0" y="700.0" type="curve" smooth="yes"/>
      <point x="153.0" y="700.0"/>
      <point x="175.0" y="678.0"/>
      <point x="175.0" y="650.0" type="curve" smooth="yes"/>
      <point x="175.0" y="50.0" type="line" smooth="yes"/>
      <point x="175.0" y="22.0"/>
      <point x="153.0" y="0.0"/>
      <point x="125.0" y="0.0" type="curve" smooth="yes"/>
      <point x="97.0" y="0.0"/>
      <point x="75.0" y="22.0"/>
      <point x="75.0" y="50.0" type="curve" smooth="yes"/>
      <point x="75.0" y="650.0" type="line" smooth="yes"/>
      <point x="75.0" y="678.0"/>
      <point x="97.0" y="700.0"/>
    </contour>
  </outline>
</glyph>
<glyph name="J" format="2">
  <advance width="500"/>
  <unicode hex="004A"/>
  <outline>
    <contour>
      <point x="250.0" y="100.0" type="curve" smooth="yes"/>
      <point x="296.0" y="100.0"/>
      <point x="325.0" y="153.0"/>
      <point x="325.0" y="200.0" type="curve" smooth="yes"/>
      <point x="325.0" y="650.0" type="line" smooth="yes"/>
      <point x="325.0" y="678.0"/>
      <point x="347.0" y="700.0"/>
      <point x="375.0" y="700.0" type="curve" smooth="yes"/>
      <point x="403.0" y="700.0"/>
      <point x="425.0" y="678.0"/>
      <point x="425.0" y="650.0" type="curve" smooth="yes"/>
      <point x="425.0" y="200.0" type="line" smooth="yes"/>
      <point x="425.0" y="98.0"/>
      <point x="354.0" y="0.0"/>
      <point x="250.0" y="0.0" type="curve" smooth="yes"/>
      <point x="164.0" y="0.0"/>
      <point x="115.0" y="40.0"/>
      <point x="90.0" y="65.0" type="curve" smooth="yes"/>
      <point x="81.0" y="74.0"/>
      <point x="75.0" y="86.0"/>
      <point x="75.0" y="100.0" type="curve" smooth="yes"/>
      <point x="75.0" y="128.0"/>
      <point x="97.0" y="150.0"/>
      <point x="125.0" y="150.0" type="curve" smooth="yes"/>
      <point x="139.0" y="150.0"/>
      <point x="151.0" y="144.0"/>
      <point x="160.0" y="135.0" type="curve" smooth="yes"/>
      <point x="185.0" y="110.0"/>
      <point x="186.0" y="100.0"/>
    </contour>
  </outline>
</glyph>
<glyph name="K" format="2">
  <advance width="650"/>
  <unicode hex="004B"/>
  <outline>
    <contour>
      <point x="575.0" y="50.0" type="curve" smooth="yes"/>
      <point x="575.0" y="23.0"/>
      <point x="553.0" y="0.0"/>
      <point x="525.0" y="0.0" type="curve" smooth="yes"/>
      <point x="509.0" y="0.0"/>
      <point x="494.0" y="8.0"/>
      <point x="485.0" y="20.0" type="curve" smooth="yes"/>
      <point x="267.0" y="303.0" type="line"/>
      <point x="175.0" y="205.0" type="line"/>
      <point x="175.0" y="50.0" type="line" smooth="yes"/>
      <point x="175.0" y="22.0"/>
      <point x="153.0" y="0.0"/>
      <point x="125.0" y="0.0" type="curve" smooth="yes"/>
      <point x="97.0" y="0.0"/>
      <point x="75.0" y="22.0"/>
      <point x="75.0" y="50.0" type="curve" smooth="yes"/>
      <point x="75.0" y="650.0" type="line" smooth="yes"/>
      <point x="75.0" y="678.0"/>
      <point x="97.0" y="700.0"/>
      <point x="125.0" y="700.0" type="curve" smooth="yes"/>
      <point x="153.0" y="700.0"/>
      <point x="175.0" y="678.0"/>
      <point x="175.0" y="650.0" type="curve" smooth="yes"/>
      <point x="175.0" y="351.0" type="line"/>
      <point x="489.0" y="684.0" type="line" smooth="yes"/>
      <point x="498.0" y="694.0"/>
      <point x="510.0" y="700.0"/>
      <point x="525.0" y="700.0" type="curve" smooth="yes"/>
      <point x="553.0" y="700.0"/>
      <point x="575.0" y="677.0"/>
      <point x="575.0" y="650.0" type="curve" smooth="yes"/>
      <point x="575.0" y="637.0"/>
      <point x="569.0" y="625.0"/>
      <point x="561.0" y="616.0" type="curve" smooth="yes"/>
      <point x="337.0" y="377.0" type="line"/>
      <point x="565.0" y="80.0" type="line" smooth="yes"/>
      <point x="571.0" y="72.0"/>
      <point x="575.0" y="61.0"/>
    </contour>
  </outline>
</glyph>
<glyph name="L" format="2">
  <advance width="550"/>
  <unicode hex="004C"/>
  <outline>
    <contour>
      <point x="125.0" y="700.0" type="curve" smooth="yes"/>
      <point x="153.0" y="700.0"/>
      <point x="175.0" y="678.0"/>
      <point x="175.0" y="650.0" type="curve" smooth="yes"/>
      <point x="175.0" y="100.0" type="line"/>
      <point x="425.0" y="100.0" type="line" smooth="yes"/>
      <point x="453.0" y="100.0"/>
      <point x="475.0" y="78.0"/>
      <point x="475.0" y="50.0" type="curve" smooth="yes"/>
      <point x="475.0" y="22.0"/>
      <point x="453.0" y="0.0"/>
      <point x="425.0" y="0.0" type="curve" smooth="yes"/>
      <point x="125.0" y="0.0" type="line" smooth="yes"/>
      <point x="97.0" y="0.0"/>
      <point x="75.0" y="22.0"/>
      <point x="75.0" y="50.0" type="curve" smooth="yes"/>
      <point x="75.0" y="650.0" type="line" smooth="yes"/>
      <point x="75.0" y="678.0"/>
      <point x="97.0" y="700.0"/>
    </contour>
  </outline>
</glyph>
<glyph name="M" format="2">
  <advance width="750"/>
  <unicode hex="004D"/>
  <outline>
    <contour>
      <point x="75.0" y="650.0" type="line" smooth="yes"/>
      <point x="75.0" y="677.0"/>
      <point x="97.0" y="700.0"/>
      <point x="125.0" y="700.0" type="curve" smooth="yes"/>
      <point x="145.0" y="700.0"/>
      <point x="162.0" y="688.0"/>
      <point x="170.0" y="672.0" type="curve" smooth="yes"/>
      <point x="375.0" y="262.0" type="line"/>
      <point x="580.0" y="672.0" type="line" smooth="yes"/>
      <point x="588.0" y="688.0"/>
      <point x="605.0" y="700.0"/>
      <point x="625.0" y="700.0" type="curve" smooth="yes"/>
      <point x="653.0" y="700.0"/>
      <point x="675.0" y="678.0"/>
      <point x="675.0" y="650.0" type="curve" smooth="yes"/>
      <point x="675.0" y="50.0" type="line" smooth="yes"/>
      <point x="675.0" y="22.0"/>
      <point x="653.0" y="0.0"/>
      <point x="625.0" y="0.0" type="curve" smooth="yes"/>
      <point x="597.0" y="0.0"/>
      <point x="575.0" y="22.0"/>
      <point x="575.0" y="50.0" type="curve" smooth="yes"/>
      <point x="575.0" y="438.0" type="line"/>
      <point x="420.0" y="128.0" type="line" smooth="yes"/>
      <point x="412.0" y="112.0"/>
      <point x="395.0" y="100.0"/>
      <point x="375.0" y="100.0" type="curve" smooth="yes"/>
      <point x="355.0" y="100.0"/>
      <point x="338.0" y="112.0"/>
      <point x="330.0" y="128.0" type="curve" smooth="yes"/>
      <point x="175.0" y="438.0" type="line"/>
      <point x="175.0" y="50.0" type="line" smooth="yes"/>
      <point x="175.0" y="22.0"/>
      <point x="153.0" y="0.0"/>
      <point x="125.0" y="0.0" type="curve" smooth="yes"/>
      <point x="97.0" y="0.0"/>
      <point x="75.0" y="22.0"/>
      <point x="75.0" y="50.0" type="curve" smooth="yes"/>
    </contour>
  </outline>
</glyph>
<glyph name="N" format="2">
  <advance width="650"/>
  <unicode hex="004E"/>
  <outline>
    <contour>
      <point x="525.0" y="700.0" type="curve" smooth="yes"/>
      <point x="553.0" y="700.0"/>
      <point x="575.0" y="678.0"/>
      <point x="575.0" y="650.0" type="curve" smooth="yes"/>
      <point x="575.0" y="50.0" type="line" smooth="yes"/>
      <point x="575.0" y="22.0"/>
      <point x="553.0" y="0.0"/>
      <point x="525.0" y="0.0" type="curve" smooth="yes"/>
      <point x="508.0" y="0.0"/>
      <point x="492.0" y="9.0"/>
      <point x="483.0" y="22.0" type="curve" smooth="yes"/>
      <point x="175.0" y="485.0" type="line"/>
      <point x="175.0" y="50.0" type="line" smooth="yes"/>
      <point x="175.0" y="22.0"/>
      <point x="153.0" y="0.0"/>
      <point x="125.0" y="0.0" type="curve" smooth="yes"/>
      <point x="97.0" y="0.0"/>
      <point x="75.0" y="22.0"/>
      <point x="75.0" y="50.0" type="curve" smooth="yes"/>
      <point x="75.0" y="650.0" type="line" smooth="yes"/>
      <point x="75.0" y="678.0"/>
      <point x="97.0" y="700.0"/>
      <point x="125.0" y="700.0" type="curve" smooth="yes"/>
      <point x="142.0" y="700.0"/>
      <point x="158.0" y="691.0"/>
      <point x="167.0" y="678.0" type="curve" smooth="yes"/>
      <point x="475.0" y="215.0" type="line"/>
      <point x="475.0" y="650.0" type="line" smooth="yes"/>
      <point x="475.0" y="678.0"/>
      <point x="497.0" y="700.0"/>
    </contour>
  </outline>
</glyph>
<glyph name="O" format="2">
  <advance width="650"/>
  <unicode hex="004F"/>
  <outline>
    <contour>
      <point x="325.0" y="700.0" type="curve" smooth="yes"/>
      <point x="477.0" y="700.0"/>
      <point x="575.0" y="575.0"/>
      <point x="575.0" y="450.0" type="curve" smooth="yes"/>
      <point x="575.0" y="250.0" type="line" smooth="yes"/>
      <point x="575.0" y="125.0"/>
      <point x="477.0" y="0.0"/>
      <point x="325.0" y="0.0" type="curve" smooth="yes"/>
      <point x="173.0" y="0.0"/>
      <point x="75.0" y="125.0"/>
      <point x="75.0" y="250.0" type="curve" smooth="yes"/>
      <point x="75.0" y="450.0" type="line" smooth="yes"/>
      <point x="75.0" y="575.0"/>
      <point x="173.0" y="700.0"/>
    </contour>
    <contour>
      <point x="325.0" y="600.0" type="curve" smooth="yes"/>
      <point x="227.0" y="600.0"/>
      <point x="175.0" y="525.0"/>
      <point x="175.0" y="450.0" type="curve" smooth="yes"/>
      <point x="175.0" y="250.0" type="line" smooth="yes"/>
      <point x="175.0" y="175.0"/>
      <point x="227.0" y="100.0"/>
      <point x="325.0" y="100.0" type="curve" smooth="yes"/>
      <point x="423.0" y="100.0"/>
      <point x="475.0" y="175.0"/>
      <point x="475.0" y="250.0" type="curve" smooth="yes"/>
      <point x="475.0" y="450.0" type="line" smooth="yes"/>
      <point x="475.0" y="525.0"/>
      <point x="423.0" y="600.0"/>
    </contour>
  </outline>
</glyph>
<glyph name="Q" format="2">
  <advance width="700"/>
  <unicode hex="0051"/>
  <outline>
    <contour>
      <point x="625.0" y="50.0" type="curve" smooth="yes"/>
      <point x="625.0" y="22.0"/>
      <point x="602.0" y="0.0"/>
      <point x="575.0" y="0.0" type="curve" smooth="yes"/>
      <point x="563.0" y="0.0"/>
      <point x="552.0" y="4.0"/>
      <point x="544.0" y="11.0" type="curve" smooth="yes"/>
      <point x="485.0" y="57.0" type="line"/>
      <point x="443.0" y="22.0"/>
      <point x="389.0" y="0.0"/>
      <point x="325.0" y="0.0" type="curve" smooth="yes"/>
      <point x="173.0" y="0.0"/>
      <point x="75.0" y="125.0"/>
      <point x="75.0" y="250.0" type="curve" smooth="yes"/>
      <point x="75.0" y="450.0" type="line" smooth="yes"/>
      <point x="75.0" y="575.0"/>
      <point x="173.0" y="700.0"/>
      <point x="325.0" y="700.0" type="curve" smooth="yes"/>
      <point x="477.0" y="700.0"/>
      <point x="575.0" y="575.0"/>
      <point x="575.0" y="450.0" type="curve" smooth="yes"/>
      <point x="575.0" y="250.0" type="line" smooth="yes"/>
      <point x="575.0" y="210.0"/>
      <point x="565.0" y="171.0"/>
      <point x="547.0" y="135.0" type="curve"/>
      <point x="606.0" y="89.0" type="line" smooth="yes"/>
      <point x="618.0" y="80.0"/>
      <point x="625.0" y="66.0"/>
    </contour>
    <contour>
      <point x="300.0" y="225.0" type="curve" smooth="yes"/>
      <point x="300.0" y="253.0"/>
      <point x="322.0" y="275.0"/>
      <point x="350.0" y="275.0" type="curve" smooth="yes"/>
      <point x="362.0" y="275.0"/>
      <point x="373.0" y="271.0"/>
      <point x="381.0" y="264.0" type="curve" smooth="yes"/>
      <point x="466.0" y="198.0" type="line"/>
      <point x="472.0" y="215.0"/>
      <point x="475.0" y="232.0"/>
      <point x="475.0" y="250.0" type="curve" smooth="yes"/>
      <point x="475.0" y="450.0" type="line" smooth="yes"/>
      <point x="475.0" y="525.0"/>
      <point x="423.0" y="600.0"/>
      <point x="325.0" y="600.0" type="curve" smooth="yes"/>
      <point x="227.0" y="600.0"/>
      <point x="175.0" y="525.0"/>
      <point x="175.0" y="450.0" type="curve" smooth="yes"/>
      <point x="175.0" y="250.0" type="line" smooth="yes"/>
      <point x="175.0" y="175.0"/>
      <point x="227.0" y="100.0"/>
      <point x="325.0" y="100.0" type="curve" smooth="yes"/>
      <point x="356.0" y="100.0"/>
      <point x="382.0" y="108.0"/>
      <point x="404.0" y="120.0" type="curve"/>
      <point x="319.0" y="186.0" type="line" smooth="yes"/>
      <point x="307.0" y="195.0"/>
      <point x="300.0" y="209.0"/>
    </contour>
  </outline>
</glyph>
<glyph name="R" format="2">
  <advance width="650"/>
  <unicode hex="0052"/>
  <outline>
    <contour>
      <point x="575.0" y="50.0" type="curve" smooth="yes"/>
      <point x="575.0" y="23.0"/>
      <point x="554.0" y="0.0"/>
      <point x="525.0" y="0.0" type="curve" smooth="yes"/>
      <point x="508.0" y="0.0"/>
      <point x="492.0" y="9.0"/>
      <point x="483.0" y="22.0" type="curve" smooth="yes"/>
      <point x="298.0" y="300.0" type="line"/>
      <point x="175.0" y="300.0" type="line"/>
      <point x="175.0" y="50.0" type="line" smooth="yes"/>
      <point x="175.0" y="22.0"/>
      <point x="153.0" y="0.0"/>
      <point x="125.0" y="0.0" type="curve" smooth="yes"/>
      <point x="97.0" y="0.0"/>
      <point x="75.0" y="22.0"/>
      <point x="75.0" y="50.0" type="curve" smooth="yes"/>
      <point x="75.0" y="250.0"/>
      <point x="75.0" y="450.0"/>
      <point x="75.0" y="650.0" type="curve" smooth="yes"/>
      <point x="75.0" y="678.0"/>
      <point x="97.0" y="700.0"/>
      <point x="125.0" y="700.0" type="curve" smooth="yes"/>
      <point x="375.0" y="700.0" type="line" smooth="yes"/>
      <point x="492.0" y="700.0"/>
      <point x="575.0" y="612.0"/>
      <point x="575.0" y="500.0" type="curve" smooth="yes"/>
      <point x="575.0" y="451.0"/>
      <point x="559.0" y="402.0"/>
      <point x="525.0" y="364.0" type="curve" smooth="yes"/>
      <point x="499.0" y="334.0"/>
      <point x="461.0" y="312.0"/>
      <point x="416.0" y="304.0" type="curve"/>
      <point x="567.0" y="78.0" type="line" smooth="yes"/>
      <point x="572.0" y="70.0"/>
      <point x="575.0" y="60.0"/>
    </contour>
    <contour>
      <point x="475.0" y="500.0" type="curve" smooth="yes"/>
      <point x="475.0" y="559.0"/>
      <point x="439.0" y="600.0"/>
      <point x="375.0" y="600.0" type="curve" smooth="yes"/>
      <point x="175.0" y="600.0" type="line"/>
      <point x="175.0" y="400.0" type="line"/>
      <point x="375.0" y="400.0" type="line" smooth="yes"/>
      <point x="439.0" y="400.0"/>
      <point x="475.0" y="441.0"/>
    </contour>
  </outline>
</glyph>
<glyph name="S" format="2">
  <advance width="650"/>
  <unicode hex="0053"/>
  <outline>
    <contour>
      <point x="75.0" y="150.0" type="curve" smooth="yes"/>
      <point x="75.0" y="177.0"/>
      <point x="96.0" y="200.0"/>
      <point x="125.0" y="200.0" type="curve" smooth="yes"/>
      <point x="142.0" y="200.0"/>
      <point x="158.0" y="191.0"/>
      <point x="167.0" y="178.0" type="curve" smooth="yes"/>
      <point x="207.0" y="118.0"/>
      <point x="261.0" y="100.0"/>
      <point x="325.0" y="100.0" type="curve" smooth="yes"/>
      <point x="430.0" y="100.0"/>
      <point x="475.0" y="158.0"/>
      <point x="475.0" y="200.0" type="curve" smooth="yes"/>
      <point x="475.0" y="226.0"/>
      <point x="468.0" y="248.0"/>
      <point x="448.0" y="266.0" type="curve" smooth="yes"/>
      <point x="428.0" y="284.0"/>
      <point x="392.0" y="300.0"/>
      <point x="325.0" y="300.0" type="curve" smooth="yes"/>
      <point x="242.0" y="300.0"/>
      <point x="178.0" y="322.0"/>
      <point x="135.0" y="360.0" type="curve" smooth="yes"/>
      <point x="92.0" y="398.0"/>
      <point x="75.0" y="451.0"/>
      <point x="75.0" y="500.0" type="curve" smooth="yes"/>
      <point x="75.0" y="608.0"/>
      <point x="180.0" y="700.0"/>
      <point x="325.0" y="700.0" type="curve" smooth="yes"/>
      <point x="411.0" y="700.0"/>
      <point x="507.0" y="668.0"/>
      <point x="567.0" y="578.0" type="curve" smooth="yes"/>
      <point x="572.0" y="570.0"/>
      <point x="575.0" y="560.0"/>
      <point x="575.0" y="550.0" type="curve" smooth="yes"/>
      <point x="575.0" y="523.0"/>
      <point x="554.0" y="500.0"/>
      <point x="525.0" y="500.0" type="curve" smooth="yes"/>
      <point x="508.0" y="500.0"/>
      <point x="492.0" y="509.0"/>
      <point x="483.0" y="522.0" type="curve" smooth="yes"/>
      <point x="443.0" y="582.0"/>
      <point x="389.0" y="600.0"/>
      <point x="325.0" y="600.0" type="curve" smooth="yes"/>
      <point x="220.0" y="600.0"/>
      <point x="175.0" y="542.0"/>
      <point x="175.0" y="500.0" type="curve" smooth="yes"/>
      <point x="175.0" y="474.0"/>
      <point x="182.0" y="452.0"/>
      <point x="202.0" y="434.0" type="curve" smooth="yes"/>
      <point x="222.0" y="416.0"/>
      <point x="258.0" y="400.0"/>
      <point x="325.0" y="400.0" type="curve" smooth="yes"/>
      <point x="408.0" y="400.0"/>
      <point x="472.0" y="378.0"/>
      <point x="515.0" y="340.0" type="curve" smooth="yes"/>
      <point x="558.0" y="302.0"/>
      <point x="575.0" y="249.0"/>
      <point x="575.0" y="200.0" type="curve" smooth="yes"/>
      <point x="575.0" y="92.0"/>
      <point x="470.0" y="0.0"/>
      <point x="325.0" y="0.0" type="curve" smooth="yes"/>
      <point x="239.0" y="0.0"/>
      <point x="143.0" y="32.0"/>
      <point x="83.0" y="122.0" type="curve" smooth="yes"/>
      <point x="78.0" y="130.0"/>
      <point x="75.0" y="140.0"/>
    </contour>
  </outline>
</glyph>
<glyph name="T" format="2">
  <advance width="650"/>
  <unicode hex="0054"/>
  <outline>
    <contour>
      <point x="125.0" y="700.0" type="curve" smooth="yes"/>
      <point x="258.0" y="700.0"/>
      <point x="392.0" y="700.0"/>
      <point x="525.0" y="700.0" type="curve" smooth="yes"/>
      <point x="553.0" y="700.0"/>
      <point x="575.0" y="678.0"/>
      <point x="575.0" y="650.0" type="curve" smooth="yes"/>
      <point x="575.0" y="622.0"/>
      <point x="553.0" y="600.0"/>
      <point x="525.0" y="600.0" type="curve" smooth="yes"/>
      <point x="375.0" y="600.0" type="line"/>
      <point x="375.0" y="50.0" type="line" smooth="yes"/>
      <point x="375.0" y="22.0"/>
      <point x="353.0" y="0.0"/>
      <point x="325.0" y="0.0" type="curve" smooth="yes"/>
      <point x="297.0" y="0.0"/>
      <point x="275.0" y="22.0"/>
      <point x="275.0" y="50.0" type="curve" smooth="yes"/>
      <point x="275.0" y="600.0" type="line"/>
      <point x="125.0" y="600.0" type="line" smooth="yes"/>
      <point x="97.0" y="600.0"/>
      <point x="75.0" y="622.0"/>
      <point x="75.0" y="650.0" type="curve" smooth="yes"/>
      <point x="75.0" y="678.0"/>
      <point x="97.0" y="700.0"/>
    </contour>
  </outline>
</glyph>
<glyph name="U" format="2">
  <advance width="650"/>
  <unicode hex="0055"/>
  <outline>
    <contour>
      <point x="125.0" y="700.0" type="curve" smooth="yes"/>
      <point x="153.0" y="700.0"/>
      <point x="175.0" y="678.0"/>
      <point x="175.0" y="650.0" type="curve" smooth="yes"/>
      <point x="175.0" y="250.0" type="line" smooth="yes"/>
      <point x="175.0" y="175.0"/>
      <point x="227.0" y="100.0"/>
      <point x="325.0" y="100.0" type="curve" smooth="yes"/>
      <point x="423.0" y="100.0"/>
      <point x="475.0" y="175.0"/>
      <point x="475.0" y="250.0" type="curve" smooth="yes"/>
      <point x="475.0" y="650.0" type="line" smooth="yes"/>
      <point x="475.0" y="678.0"/>
      <point x="497.0" y="700.0"/>
      <point x="525.0" y="700.0" type="curve" smooth="yes"/>
      <point x="553.0" y="700.0"/>
      <point x="575.0" y="678.0"/>
      <point x="575.0" y="650.0" type="curve" smooth="yes"/>
      <point x="575.0" y="250.0" type="line" smooth="yes"/>
      <point x="575.0" y="125.0"/>
      <point x="477.0" y="0.0"/>
      <point x="325.0" y="0.0" type="curve" smooth="yes"/>
      <point x="173.0" y="0.0"/>
      <point x="75.0" y="125.0"/>
      <point x="75.0" y="250.0" type="curve" smooth="yes"/>
      <point x="75.0" y="650.0" type="line" smooth="yes"/>
      <point x="75.0" y="678.0"/>
      <point x="97.0" y="700.0"/>
    </contour>
  </outline>
</glyph>
<glyph name="V" format="2">
  <advance width="650"/>
  <unicode hex="0056"/>
  <outline>
    <contour>
      <point x="525.0" y="700.0" type="curve" smooth="yes"/>
      <point x="555.0" y="700.0"/>
      <point x="575.0" y="676.0"/>
      <point x="575.0" y="650.0" type="curve" smooth="yes"/>
      <point x="575.0" y="644.0"/>
      <point x="574.0" y="639.0"/>
      <point x="572.0" y="634.0" type="curve" smooth="yes"/>
      <point x="372.0" y="34.0" type="line" smooth="yes"/>
      <point x="365.0" y="14.0"/>
      <point x="347.0" y="0.0"/>
      <point x="325.0" y="0.0" type="curve" smooth="yes"/>
      <point x="303.0" y="0.0"/>
      <point x="285.0" y="14.0"/>
      <point x="278.0" y="34.0" type="curve" smooth="yes"/>
      <point x="78.0" y="634.0" type="line" smooth="yes"/>
      <point x="76.0" y="639.0"/>
      <point x="75.0" y="644.0"/>
      <point x="75.0" y="650.0" type="curve" smooth="yes"/>
      <point x="75.0" y="676.0"/>
      <point x="95.0" y="700.0"/>
      <point x="125.0" y="700.0" type="curve" smooth="yes"/>
      <point x="148.0" y="700.0"/>
      <point x="165.0" y="686.0"/>
      <point x="172.0" y="666.0" type="curve" smooth="yes"/>
      <point x="325.0" y="208.0" type="line"/>
      <point x="478.0" y="666.0" type="line" smooth="yes"/>
      <point x="485.0" y="686.0"/>
      <point x="503.0" y="700.0"/>
    </contour>
  </outline>
</glyph>
<glyph name="W" format="2">
  <advance width="950"/>
  <unicode hex="0057"/>
  <outline>
    <contour>
      <point x="75.0" y="650.0" type="curve" smooth="yes"/>
      <point x="75.0" y="676.0"/>
      <point x="95.0" y="700.0"/>
      <point x="125.0" y="700.0" type="curve" smooth="yes"/>
      <point x="149.0" y="700.0"/>
      <point x="167.0" y="684.0"/>
      <point x="173.0" y="664.0" type="curve" smooth="yes"/>
      <point x="300.0" y="229.0" type="line"/>
      <point x="427.0" y="664.0" type="line" smooth="yes"/>
      <point x="433.0" y="685.0"/>
      <point x="452.0" y="700.0"/>
      <point x="475.0" y="700.0" type="curve" smooth="yes"/>
      <point x="498.0" y="700.0"/>
      <point x="517.0" y="685.0"/>
      <point x="523.0" y="664.0" type="curve" smooth="yes"/>
      <point x="650.0" y="229.0" type="line"/>
      <point x="777.0" y="664.0" type="line" smooth="yes"/>
      <point x="783.0" y="685.0"/>
      <point x="802.0" y="700.0"/>
      <point x="825.0" y="700.0" type="curve" smooth="yes"/>
      <point x="855.0" y="700.0"/>
      <point x="875.0" y="676.0"/>
      <point x="875.0" y="650.0" type="curve" smooth="yes"/>
      <point x="875.0" y="645.0"/>
      <point x="874.0" y="640.0"/>
      <point x="873.0" y="636.0" type="curve" smooth="yes"/>
      <point x="698.0" y="36.0" type="line" smooth="yes"/>
      <point x="692.0" y="15.0"/>
      <point x="673.0" y="0.0"/>
      <point x="650.0" y="0.0" type="curve" smooth="yes"/>
      <point x="627.0" y="0.0"/>
      <point x="608.0" y="15.0"/>
      <point x="602.0" y="36.0" type="curve" smooth="yes"/>
      <point x="475.0" y="471.0" type="line"/>
      <point x="348.0" y="36.0" type="line" smooth="yes"/>
      <point x="342.0" y="15.0"/>
      <point x="323.0" y="0.0"/>
      <point x="300.0" y="0.0" type="curve" smooth="yes"/>
      <point x="277.0" y="0.0"/>
      <point x="258.0" y="15.0"/>
      <point x="252.0" y="36.0" type="curve" smooth="yes"/>
      <point x="77.0" y="636.0" type="line" smooth="yes"/>
      <point x="76.0" y="640.0"/>
      <point x="75.0" y="645.0"/>
    </contour>
  </outline>
</glyph>
<glyph name="X" format="2">
  <advance width="650"/>
  <unicode hex="0058"/>
  <outline>
    <contour>
      <point x="75.0" y="650.0" type="curve" smooth="yes"/>
      <point x="75.0" y="677.0"/>
      <point x="96.0" y="700.0"/>
      <point x="125.0" y="700.0" type="curve" smooth="yes"/>
      <point x="144.0" y="700.0"/>
      <point x="158.0" y="691.0"/>
      <point x="167.0" y="678.0" type="curve" smooth="yes"/>
      <point x="325.0" y="440.0" type="line"/>
      <point x="483.0" y="678.0" type="line" smooth="yes"/>
      <point x="492.0" y="691.0"/>
      <point x="508.0" y="700.0"/>
      <point x="525.0" y="700.0" type="curve" smooth="yes"/>
      <point x="554.0" y="700.0"/>
      <point x="575.0" y="677.0"/>
      <point x="575.0" y="650.0" type="curve" smooth="yes"/>
      <point x="575.0" y="640.0"/>
      <point x="572.0" y="630.0"/>
      <point x="567.0" y="622.0" type="curve" smooth="yes"/>
      <point x="385.0" y="350.0" type="line"/>
      <point x="567.0" y="78.0" type="line" smooth="yes"/>
      <point x="572.0" y="70.0"/>
      <point x="575.0" y="60.0"/>
      <point x="575.0" y="50.0" type="curve" smooth="yes"/>
      <point x="575.0" y="23.0"/>
      <point x="554.0" y="0.0"/>
      <point x="525.0" y="0.0" type="curve" smooth="yes"/>
      <point x="508.0" y="0.0"/>
      <point x="492.0" y="9.0"/>
      <point x="483.0" y="22.0" type="curve" smooth="yes"/>
      <point x="325.0" y="260.0" type="line"/>
      <point x="167.0" y="22.0" type="line" smooth="yes"/>
      <point x="158.0" y="9.0"/>
      <point x="142.0" y="0.0"/>
      <point x="125.0" y="0.0" type="curve" smooth="yes"/>
      <point x="96.0" y="0.0"/>
      <point x="75.0" y="23.0"/>
      <point x="75.0" y="50.0" type="curve" smooth="yes"/>
      <point x="75.0" y="60.0"/>
      <point x="78.0" y="70.0"/>
      <point x="83.0" y="78.0" type="curve" smooth="yes"/>
      <point x="265.0" y="350.0" type="line"/>
      <point x="83.0" y="622.0" type="line" smooth="yes"/>
      <point x="78.0" y="630.0"/>
      <point x="75.0" y="640.0"/>
    </contour>
  </outline>
</glyph>
<glyph name="Y" format="2">
  <advance width="650"/>
  <unicode hex="0059"/>
  <outline>
    <contour>
      <point x="75.0" y="650.0" type="curve" smooth="yes"/>
      <point x="75.0" y="676.0"/>
      <point x="96.0" y="700.0"/>
      <point x="125.0" y="700.0" type="curve" smooth="yes"/>
      <point x="144.0" y="700.0"/>
      <point x="159.0" y="690.0"/>
      <point x="168.0" y="675.0" type="curve" smooth="yes"/>
      <point x="325.0" y="401.0" type="line"/>
      <point x="482.0" y="675.0" type="line" smooth="yes"/>
      <point x="490.0" y="690.0"/>
      <point x="505.0" y="700.0"/>
      <point x="525.0" y="700.0" type="curve" smooth="yes"/>
      <point x="554.0" y="700.0"/>
      <point x="575.0" y="676.0"/>
      <point x="575.0" y="650.0" type="curve" smooth="yes"/>
      <point x="575.0" y="641.0"/>
      <point x="572.0" y="632.0"/>
      <point x="568.0" y="625.0" type="curve" smooth="yes"/>
      <point x="375.0" y="287.0" type="line"/>
      <point x="375.0" y="50.0" type="line" smooth="yes"/>
      <point x="375.0" y="22.0"/>
      <point x="353.0" y="0.0"/>
      <point x="325.0" y="0.0" type="curve" smooth="yes"/>
      <point x="297.0" y="0.0"/>
      <point x="275.0" y="22.0"/>
      <point x="275.0" y="50.0" type="curve" smooth="yes"/>
      <point x="275.0" y="287.0" type="line"/>
      <point x="82.0" y="625.0" type="line" smooth="yes"/>
      <point x="78.0" y="632.0"/>
      <point x="75.0" y="641.0"/>
    </contour>
  </outline>
</glyph>
<glyph name="Z" format="2">
  <advance width="650"/>
  <unicode hex="005A"/>
  <outline>
    <contour>
      <point x="125.0" y="700.0" type="curve" smooth="yes"/>
      <point x="525.0" y="700.0" type="line" smooth="yes"/>
      <point x="553.0" y="700.0"/>
      <point x="575.0" y="678.0"/>
      <point x="575.0" y="650.0" type="curve" smooth="yes"/>
      <point x="575.0" y="640.0"/>
      <point x="572.0" y="630.0"/>
      <point x="567.0" y="622.0" type="curve" smooth="yes"/>
      <point x="218.0" y="100.0" type="line"/>
      <point x="525.0" y="100.0" type="line" smooth="yes"/>
      <point x="553.0" y="100.0"/>
      <point x="575.0" y="78.0"/>
      <point x="575.0" y="50.0" type="curve" smooth="yes"/>
      <point x="575.0" y="22.0"/>
      <point x="553.0" y="0.0"/>
      <point x="525.0" y="0.0" type="curve" smooth="yes"/>
      <point x="125.0" y="0.0" type="line" smooth="yes"/>
      <point x="97.0" y="0.0"/>
      <point x="75.0" y="22.0"/>
      <point x="75.0" y="50.0" type="curve" smooth="yes"/>
      <point x="75.0" y="60.0"/>
      <point x="78.0" y="70.0"/>
      <point x="83.0" y="78.0" type="curve" smooth="yes"/>
      <point x="432.0" y="600.0" type="line"/>
      <point x="125.0" y="600.0" type="line" smooth="yes"/>
      <point x="97.0" y="600.0"/>
      <point x="75.0" y="622.0"/>
      <point x="75.0" y="650.0" type="curve" smooth="yes"/>
      <point x="75.0" y="678.0"/>
      <point x="97.0" y="700.0"/>
    </contour>
  </outline>
</glyph>
<glyph name="a" format="2">
  <advance width="550"/>
  <unicode hex="0061"/>
  <outline>
    <contour>
      <point x="125.0" y="375.0" type="curve" smooth="yes"/>
      <point x="99.0" y="375.0"/>
      <point x="75.0" y="396.0"/>
      <point x="75.0" y="425.0" type="curve" smooth="yes"/>
      <point x="75.0" y="445.0"/>
      <point x="87.0" y="462.0"/>
      <point x="103.0" y="470.0" type="curve" smooth="yes"/>
      <point x="159.0" y="498.0"/>
      <point x="200.0" y="500.0"/>
      <point x="250.0" y="500.0" type="curve" smooth="yes"/>
      <point x="353.0" y="500.0"/>
      <point x="450.0" y="416.0"/>
      <point x="450.0" y="300.0" type="curve" smooth="yes"/>
      <point x="450.0" y="100.0" type="line"/>
      <point x="478.0" y="100.0"/>
      <point x="500.0" y="78.0"/>
      <point x="500.0" y="50.0" type="curve" smooth="yes"/>
      <point x="500.0" y="22.0"/>
      <point x="478.0" y="0.0"/>
      <point x="450.0" y="0.0" type="curve" smooth="yes"/>
      <point x="417.0" y="0.0"/>
      <point x="385.0" y="16.0"/>
      <point x="368.0" y="40.0" type="curve"/>
      <point x="334.0" y="15.0"/>
      <point x="293.0" y="0.0"/>
      <point x="250.0" y="0.0" type="curve" smooth="yes"/>
      <point x="200.0" y="0.0" type="line" smooth="yes"/>
      <point x="125.0" y="0.0"/>
      <point x="50.0" y="61.0"/>
      <point x="50.0" y="150.0" type="curve" smooth="yes"/>
      <point x="50.0" y="239.0"/>
      <point x="125.0" y="300.0"/>
      <point x="200.0" y="300.0" type="curve" smooth="yes"/>
      <point x="350.0" y="300.0" type="line"/>
      <point x="350.0" y="359.0"/>
      <point x="297.0" y="400.0"/>
      <point x="250.0" y="400.0" type="curve" smooth="yes"/>
      <point x="241.0" y="400.0"/>
      <point x="234.0" y="400.0"/>
      <point x="227.0" y="400.0" type="curve" smooth="yes"/>
      <point x="196.0" y="400.0"/>
      <point x="183.0" y="398.0"/>
      <point x="147.0" y="380.0" type="curve" smooth="yes"/>
      <point x="140.0" y="377.0"/>
      <point x="133.0" y="375.0"/>
    </contour>
    <contour>
      <point x="200.0" y="200.0" type="line" smooth="yes"/>
      <point x="175.0" y="200.0"/>
      <point x="150.0" y="186.0"/>
      <point x="150.0" y="150.0" type="curve" smooth="yes"/>
      <point x="150.0" y="114.0"/>
      <point x="175.0" y="100.0"/>
      <point x="200.0" y="100.0" type="curve" smooth="yes"/>
      <point x="250.0" y="100.0" type="line" smooth="yes"/>
      <point x="297.0" y="100.0"/>
      <point x="350.0" y="141.0"/>
      <point x="350.0" y="200.0" type="curve"/>
    </contour>
  </outline>
</glyph>
<glyph name="c" format="2">
  <advance width="475"/>
  <unicode hex="0063"/>
  <outline>
    <contour>
      <point x="375.0" y="125.0" type="curve" smooth="yes"/>
      <point x="401.0" y="125.0"/>
      <point x="425.0" y="104.0"/>
      <point x="425.0" y="75.0" type="curve" smooth="yes"/>
      <point x="425.0" y="55.0"/>
      <point x="413.0" y="38.0"/>
      <point x="397.0" y="30.0" type="curve" smooth="yes"/>
      <point x="341.0" y="2.0"/>
      <point x="300.0" y="0.0"/>
      <point x="250.0" y="0.0" type="curve" smooth="yes"/>
      <point x="147.0" y="0.0"/>
      <point x="50.0" y="84.0"/>
      <point x="50.0" y="200.0" type="curve" smooth="yes"/>
      <point x="50.0" y="300.0" type="line" smooth="yes"/>
      <point x="50.0" y="416.0"/>
      <point x="147.0" y="500.0"/>
      <point x="250.0" y="500.0" type="curve" smooth="yes"/>
      <point x="300.0" y="500.0"/>
      <point x="341.0" y="498.0"/>
      <point x="397.0" y="470.0" type="curve" smooth="yes"/>
      <point x="413.0" y="462.0"/>
      <point x="425.0" y="445.0"/>
      <point x="425.0" y="425.0" type="curve" smooth="yes"/>
      <point x="425.0" y="396.0"/>
      <point x="401.0" y="375.0"/>
      <point x="375.0" y="375.0" type="curve" smooth="yes"/>
      <point x="367.0" y="375.0"/>
      <point x="360.0" y="377.0"/>
      <point x="353.0" y="380.0" type="curve" smooth="yes"/>
      <point x="317.0" y="398.0"/>
      <point x="304.0" y="400.0"/>
      <point x="273.0" y="400.0" type="curve" smooth="yes"/>
      <point x="266.0" y="400.0"/>
      <point x="259.0" y="400.0"/>
      <point x="250.0" y="400.0" type="curve" smooth="yes"/>
      <point x="203.0" y="400.0"/>
      <point x="150.0" y="359.0"/>
      <point x="150.0" y="300.0" type="curve" smooth="yes"/>
      <point x="150.0" y="200.0" type="line" smooth="yes"/>
      <point x="150.0" y="141.0"/>
      <point x="203.0" y="100.0"/>
      <point x="250.0" y="100.0" type="curve" smooth="yes"/>
      <point x="259.0" y="100.0"/>
      <point x="266.0" y="100.0"/>
      <point x="273.0" y="100.0" type="curve" smooth="yes"/>
      <point x="304.0" y="100.0"/>
      <point x="317.0" y="102.0"/>
      <point x="353.0" y="120.0" type="curve" smooth="yes"/>
      <point x="360.0" y="123.0"/>
      <point x="367.0" y="125.0"/>
    </contour>
  </outline>
</glyph>
<glyph name="e" format="2">
  <advance width="500"/>
  <unicode hex="0065"/>
  <outline>
    <contour>
      <point x="375.0" y="125.0" type="curve" smooth="yes"/>
      <point x="401.0" y="125.0"/>
      <point x="425.0" y="104.0"/>
      <point x="425.0" y="75.0" type="curve" smooth="yes"/>
      <point x="425.0" y="55.0"/>
      <point x="413.0" y="38.0"/>
      <point x="397.0" y="30.0" type="curve" smooth="yes"/>
      <point x="341.0" y="2.0"/>
      <point x="300.0" y="0.0"/>
      <point x="250.0" y="0.0" type="curve" smooth="yes"/>
      <point x="147.0" y="0.0"/>
      <point x="50.0" y="84.0"/>
      <point x="50.0" y="200.0" type="curve" smooth="yes"/>
      <point x="50.0" y="233.0"/>
      <point x="50.0" y="267.0"/>
      <point x="50.0" y="300.0" type="curve" smooth="yes"/>
      <point x="50.0" y="416.0"/>
      <point x="147.0" y="500.0"/>
      <point x="250.0" y="500.0" type="curve" smooth="yes"/>
      <point x="353.0" y="500.0"/>
      <point x="450.0" y="416.0"/>
      <point x="450.0" y="300.0" type="curve" smooth="yes"/>
      <point x="450.0" y="250.0" type="line" smooth="yes"/>
      <point x="450.0" y="222.0"/>
      <point x="428.0" y="200.0"/>
      <point x="400.0" y="200.0" type="curve" smooth="yes"/>
      <point x="150.0" y="200.0" type="line"/>
      <point x="150.0" y="141.0"/>
      <point x="203.0" y="100.0"/>
      <point x="250.0" y="100.0" type="curve" smooth="yes"/>
      <point x="259.0" y="100.0"/>
      <point x="266.0" y="100.0"/>
      <point x="273.0" y="100.0" type="curve" smooth="yes"/>
      <point x="304.0" y="100.0"/>
      <point x="317.0" y="102.0"/>
      <point x="353.0" y="120.0" type="curve" smooth="yes"/>
      <point x="360.0" y="123.0"/>
      <point x="367.0" y="125.0"/>
    </contour>
    <contour>
      <point x="250.0" y="400.0" type="curve" smooth="yes"/>
      <point x="203.0" y="400.0"/>
      <point x="150.0" y="359.0"/>
      <point x="150.0" y="300.0" type="curve"/>
      <point x="350.0" y="300.0" type="line"/>
      <point x="350.0" y="359.0"/>
      <point x="297.0" y="400.0"/>
    </contour>
  </outline>
</glyph>
<glyph name="f" format="2">
  <advance width="350"/>
  <unicode hex="0066"/>
  <outline>
    <contour>
      <point x="250.0" y="700.0" type="curve" smooth="yes"/>
      <point x="278.0" y="700.0"/>
      <point x="300.0" y="678.0"/>
      <point x="300.0" y="650.0" type="curve" smooth="yes"/>
      <point x="300.0" y="622.0"/>
      <point x="278.0" y="600.0"/>
      <point x="250.0" y="600.0" type="curve" smooth="yes"/>
      <point x="214.0" y="600.0"/>
      <point x="200.0" y="575.0"/>
      <point x="200.0" y="550.0" type="curve" smooth="yes"/>
      <point x="200.0" y="500.0" type="line"/>
      <point x="250.0" y="500.0" type="line" smooth="yes"/>
      <point x="278.0" y="500.0"/>
      <point x="300.0" y="478.0"/>
      <point x="300.0" y="450.0" type="curve" smooth="yes"/>
      <point x="300.0" y="422.0"/>
      <point x="278.0" y="400.0"/>
      <point x="250.0" y="400.0" type="curve" smooth="yes"/>
      <point x="200.0" y="400.0" type="line"/>
      <point x="200.0" y="50.0" type="line" smooth="yes"/>
      <point x="200.0" y="22.0"/>
      <point x="178.0" y="0.0"/>
      <point x="150.0" y="0.0" type="curve" smooth="yes"/>
      <point x="122.0" y="0.0"/>
      <point x="100.0" y="22.0"/>
      <point x="100.0" y="50.0" type="curve" smooth="yes"/>
      <point x="100.0" y="400.0" type="line"/>
      <point x="72.0" y="400.0"/>
      <point x="50.0" y="422.0"/>
      <point x="50.0" y="450.0" type="curve" smooth="yes"/>
      <point x="50.0" y="478.0"/>
      <point x="72.0" y="500.0"/>
      <point x="100.0" y="500.0" type="curve"/>
      <point x="100.0" y="550.0" type="line" smooth="yes"/>
      <point x="100.0" y="625.0"/>
      <point x="161.0" y="700.0"/>
    </contour>
  </outline>
</glyph>
<glyph name="g" format="2">
  <advance width="500"/>
  <unicode hex="0067"/>
  <outline>
    <contour>
      <point x="75.0" y="-125.0" type="curve" smooth="yes"/>
      <point x="75.0" y="-96.0"/>
      <point x="99.0" y="-75.0"/>
      <point x="125.0" y="-75.0" type="curve" smooth="yes"/>
      <point x="133.0" y="-75.0"/>
      <point x="140.0" y="-77.0"/>
      <point x="147.0" y="-80.0" type="curve" smooth="yes"/>
      <point x="183.0" y="-98.0"/>
      <point x="196.0" y="-100.0"/>
      <point x="227.0" y="-100.0" type="curve" smooth="yes"/>
      <point x="234.0" y="-100.0"/>
      <point x="241.0" y="-100.0"/>
      <point x="250.0" y="-100.0" type="curve" smooth="yes"/>
      <point x="297.0" y="-100.0"/>
      <point x="350.0" y="-59.0"/>
      <point x="350.0" y="0.0" type="curve" smooth="yes"/>
      <point x="350.0" y="27.0" type="line"/>
      <point x="320.0" y="9.0"/>
      <point x="285.0" y="0.0"/>
      <point x="250.0" y="0.0" type="curve" smooth="yes"/>
      <point x="147.0" y="0.0"/>
      <point x="50.0" y="84.0"/>
      <point x="50.0" y="200.0" type="curve" smooth="yes"/>
      <point x="50.0" y="300.0" type="line" smooth="yes"/>
      <point x="50.0" y="416.0"/>
      <point x="147.0" y="500.0"/>
      <point x="250.0" y="500.0" type="curve" smooth="yes"/>
      <point x="287.0" y="500.0"/>
      <point x="324.0" y="489.0"/>
      <point x="355.0" y="470.0" type="curve"/>
      <point x="363.0" y="488.0"/>
      <point x="380.0" y="500.0"/>
      <point x="400.0" y="500.0" type="curve" smooth="yes"/>
      <point x="428.0" y="500.0"/>
      <point x="450.0" y="478.0"/>
      <point x="450.0" y="450.0" type="curve" smooth="yes"/>
      <point x="450.0" y="0.0" type="line" smooth="yes"/>
      <point x="450.0" y="-116.0"/>
      <point x="353.0" y="-200.0"/>
      <point x="250.0" y="-200.0" type="curve" smooth="yes"/>
      <point x="200.0" y="-200.0"/>
      <point x="159.0" y="-198.0"/>
      <point x="103.0" y="-170.0" type="curve" smooth="yes"/>
      <point x="87.0" y="-162.0"/>
      <point x="75.0" y="-145.0"/>
    </contour>
    <contour>
      <point x="250.0" y="400.0" type="curve" smooth="yes"/>
      <point x="203.0" y="400.0"/>
      <point x="150.0" y="359.0"/>
      <point x="150.0" y="300.0" type="curve" smooth="yes"/>
      <point x="150.0" y="200.0" type="line" smooth="yes"/>
      <point x="150.0" y="141.0"/>
      <point x="203.0" y="100.0"/>
      <point x="250.0" y="100.0" type="curve" smooth="yes"/>
      <point x="297.0" y="100.0"/>
      <point x="350.0" y="141.0"/>
      <point x="350.0" y="200.0" type="curve" smooth="yes"/>
      <point x="350.0" y="300.0" type="line" smooth="yes"/>
      <point x="350.0" y="359.0"/>
      <point x="297.0" y="400.0"/>
    </contour>
  </outline>
</glyph>
<glyph name="h" format="2">
  <advance width="500"/>
  <unicode hex="0068"/>
  <outline>
    <contour>
      <point x="100.0" y="700.0" type="curve" smooth="yes"/>
      <point x="128.0" y="700.0"/>
      <point x="150.0" y="678.0"/>
      <point x="150.0" y="650.0" type="curve" smooth="yes"/>
      <point x="150.0" y="473.0" type="line"/>
      <point x="180.0" y="491.0"/>
      <point x="215.0" y="500.0"/>
      <point x="250.0" y="500.0" type="curve" smooth="yes"/>
      <point x="353.0" y="500.0"/>
      <point x="450.0" y="416.0"/>
      <point x="450.0" y="300.0" type="curve" smooth="yes"/>
      <point x="450.0" y="50.0" type="line" smooth="yes"/>
      <point x="450.0" y="22.0"/>
      <point x="428.0" y="0.0"/>
      <point x="400.0" y="0.0" type="curve" smooth="yes"/>
      <point x="372.0" y="0.0"/>
      <point x="350.0" y="22.0"/>
      <point x="350.0" y="50.0" type="curve" smooth="yes"/>
      <point x="350.0" y="300.0" type="line" smooth="yes"/>
      <point x="350.0" y="359.0"/>
      <point x="297.0" y="400.0"/>
      <point x="250.0" y="400.0" type="curve" smooth="yes"/>
      <point x="203.0" y="400.0"/>
      <point x="150.0" y="359.0"/>
      <point x="150.0" y="300.0" type="curve" smooth="yes"/>
      <point x="150.0" y="50.0" type="line" smooth="yes"/>
      <point x="150.0" y="22.0"/>
      <point x="128.0" y="0.0"/>
      <point x="100.0" y="0.0" type="curve" smooth="yes"/>
      <point x="72.0" y="0.0"/>
      <point x="50.0" y="22.0"/>
      <point x="50.0" y="50.0" type="curve" smooth="yes"/>
      <point x="50.0" y="250.0"/>
      <point x="50.0" y="450.0"/>
      <point x="50.0" y="650.0" type="curve" smooth="yes"/>
      <point x="50.0" y="678.0"/>
      <point x="72.0" y="700.0"/>
    </contour>
  </outline>
</glyph>
<glyph name="i" format="2">
  <advance width="224"/>
  <unicode hex="0069"/>
  <outline>
    <contour>
      <point x="112.0" y="712.0" type="curve" smooth="yes"/>
      <point x="146.0" y="712.0"/>
      <point x="174.0" y="684.0"/>
      <point x="174.0" y="650.0" type="curve" smooth="yes"/>
      <point x="174.0" y="616.0"/>
      <point x="146.0" y="588.0"/>
      <point x="112.0" y="588.0" type="curve" smooth="yes"/>
      <point x="78.0" y="588.0"/>
      <point x="50.0" y="616.0"/>
      <point x="50.0" y="650.0" type="curve" smooth="yes"/>
      <point x="50.0" y="684.0"/>
      <point x="78.0" y="712.0"/>
    </contour>
    <contour>
      <point x="112.0" y="500.0" type="curve" smooth="yes"/>
      <point x="140.0" y="500.0"/>
      <point x="162.0" y="478.0"/>
      <point x="162.0" y="450.0" type="curve" smooth="yes"/>
      <point x="162.0" y="50.0" type="line" smooth="yes"/>
      <point x="162.0" y="22.0"/>
      <point x="140.0" y="0.0"/>
      <point x="112.0" y="0.0" type="curve" smooth="yes"/>
      <point x="84.0" y="0.0"/>
      <point x="62.0" y="22.0"/>
      <point x="62.0" y="50.0" type="curve" smooth="yes"/>
      <point x="62.0" y="450.0" type="line" smooth="yes"/>
      <point x="62.0" y="478.0"/>
      <point x="84.0" y="500.0"/>
    </contour>
  </outline>
</glyph>
<glyph name="j" format="2">
  <advance width="312"/>
  <unicode hex="006A"/>
  <outline>
    <contour>
      <point x="200.0" y="712.0" type="curve" smooth="yes"/>
      <point x="234.0" y="712.0"/>
      <point x="262.0" y="684.0"/>
      <point x="262.0" y="650.0" type="curve" smooth="yes"/>
      <point x="262.0" y="616.0"/>
      <point x="234.0" y="588.0"/>
      <point x="200.0" y="588.0" type="curve" smooth="yes"/>
      <point x="166.0" y="588.0"/>
      <point x="138.0" y="616.0"/>
      <point x="138.0" y="650.0" type="curve" smooth="yes"/>
      <point x="138.0" y="684.0"/>
      <point x="166.0" y="712.0"/>
    </contour>
    <contour>
      <point x="200.0" y="500.0" type="curve" smooth="yes"/>
      <point x="228.0" y="500.0"/>
      <point x="250.0" y="478.0"/>
      <point x="250.0" y="450.0" type="curve" smooth="yes"/>
      <point x="250.0" y="-50.0" type="line" smooth="yes"/>
      <point x="250.0" y="-125.0"/>
      <point x="189.0" y="-200.0"/>
      <point x="100.0" y="-200.0" type="curve" smooth="yes"/>
      <point x="72.0" y="-200.0"/>
      <point x="50.0" y="-178.0"/>
      <point x="50.0" y="-150.0" type="curve" smooth="yes"/>
      <point x="50.0" y="-122.0"/>
      <point x="72.0" y="-100.0"/>
      <point x="100.0" y="-100.0" type="curve" smooth="yes"/>
      <point x="136.0" y="-100.0"/>
      <point x="150.0" y="-75.0"/>
      <point x="150.0" y="-50.0" type="curve" smooth="yes"/>
      <point x="150.0" y="450.0" type="line" smooth="yes"/>
      <point x="150.0" y="478.0"/>
      <point x="172.0" y="500.0"/>
    </contour>
  </outline>
</glyph>
<glyph name="k" format="2">
  <advance width="500"/>
  <unicode hex="006B"/>
  <outline>
    <contour>
      <point x="450.0" y="50.0" type="curve" smooth="yes"/>
      <point x="450.0" y="24.0"/>
      <point x="429.0" y="0.0"/>
      <point x="400.0" y="0.0" type="curve" smooth="yes"/>
      <point x="382.0" y="0.0"/>
      <point x="366.0" y="10.0"/>
      <point x="357.0" y="24.0" type="curve" smooth="yes"/>
      <point x="245.0" y="208.0" type="line"/>
      <point x="150.0" y="104.0" type="line"/>
      <point x="150.0" y="50.0" type="line" smooth="yes"/>
      <point x="150.0" y="22.0"/>
      <point x="128.0" y="0.0"/>
      <point x="100.0" y="0.0" type="curve" smooth="yes"/>
      <point x="72.0" y="0.0"/>
      <point x="50.0" y="22.0"/>
      <point x="50.0" y="50.0" type="curve" smooth="yes"/>
      <point x="50.0" y="650.0" type="line" smooth="yes"/>
      <point x="50.0" y="678.0"/>
      <point x="72.0" y="700.0"/>
      <point x="100.0" y="700.0" type="curve" smooth="yes"/>
      <point x="128.0" y="700.0"/>
      <point x="150.0" y="678.0"/>
      <point x="150.0" y="650.0" type="curve" smooth="yes"/>
      <point x="150.0" y="252.0" type="line"/>
      <point x="363.0" y="484.0" type="line" smooth="yes"/>
      <point x="372.0" y="494.0"/>
      <point x="385.0" y="500.0"/>
      <point x="400.0" y="500.0" type="curve" smooth="yes"/>
      <point x="428.0" y="500.0"/>
      <point x="450.0" y="477.0"/>
      <point x="450.0" y="450.0" type="curve" smooth="yes"/>
      <point x="450.0" y="437.0"/>
      <point x="445.0" y="425.0"/>
      <point x="437.0" y="416.0" type="curve" smooth="yes"/>
      <point x="315.0" y="284.0" type="line"/>
      <point x="443.0" y="76.0" type="line" smooth="yes"/>
      <point x="448.0" y="68.0"/>
      <point x="450.0" y="60.0"/>
    </contour>
  </outline>
</glyph>
<glyph name="l" format="2">
  <advance width="250"/>
  <unicode hex="006C"/>
  <outline>
    <contour>
      <point x="100.0" y="700.0" type="curve" smooth="yes"/>
      <point x="128.0" y="700.0"/>
      <point x="150.0" y="678.0"/>
      <point x="150.0" y="650.0" type="curve" smooth="yes"/>
      <point x="150.0" y="100.0" type="line"/>
      <point x="178.0" y="100.0"/>
      <point x="200.0" y="78.0"/>
      <point x="200.0" y="50.0" type="curve" smooth="yes"/>
      <point x="200.0" y="22.0"/>
      <point x="178.0" y="0.0"/>
      <point x="150.0" y="0.0" type="curve" smooth="yes"/>
      <point x="120.0" y="0.0"/>
      <point x="91.0" y="13.0"/>
      <point x="73.0" y="34.0" type="curve" smooth="yes"/>
      <point x="55.0" y="55.0"/>
      <point x="50.0" y="79.0"/>
      <point x="50.0" y="100.0" type="curve" smooth="yes"/>
      <point x="50.0" y="650.0" type="line" smooth="yes"/>
      <point x="50.0" y="678.0"/>
      <point x="72.0" y="700.0"/>
    </contour>
  </outline>
</glyph>
<glyph name="m" format="2">
  <advance width="800"/>
  <unicode hex="006D"/>
  <outline>
    <contour>
      <point x="100.0" y="500.0" type="curve" smooth="yes"/>
      <point x="120.0" y="500.0"/>
      <point x="138.0" y="488.0"/>
      <point x="146.0" y="470.0" type="curve"/>
      <point x="177.0" y="489.0"/>
      <point x="213.0" y="500.0"/>
      <point x="250.0" y="500.0" type="curve" smooth="yes"/>
      <point x="307.0" y="500.0"/>
      <point x="362.0" y="475.0"/>
      <point x="400.0" y="432.0" type="curve"/>
      <point x="438.0" y="475.0"/>
      <point x="493.0" y="500.0"/>
      <point x="550.0" y="500.0" type="curve" smooth="yes"/>
      <point x="653.0" y="500.0"/>
      <point x="750.0" y="416.0"/>
      <point x="750.0" y="300.0" type="curve" smooth="yes"/>
      <point x="750.0" y="50.0" type="line" smooth="yes"/>
      <point x="750.0" y="22.0"/>
      <point x="728.0" y="0.0"/>
      <point x="700.0" y="0.0" type="curve" smooth="yes"/>
      <point x="672.0" y="0.0"/>
      <point x="650.0" y="22.0"/>
      <point x="650.0" y="50.0" type="curve" smooth="yes"/>
      <point x="650.0" y="300.0" type="line" smooth="yes"/>
      <point x="650.0" y="359.0"/>
      <point x="597.0" y="400.0"/>
      <point x="550.0" y="400.0" type="curve" smooth="yes"/>
      <point x="503.0" y="400.0"/>
      <point x="450.0" y="359.0"/>
      <point x="450.0" y="300.0" type="curve" smooth="yes"/>
      <point x="450.0" y="50.0" type="line" smooth="yes"/>
      <point x="450.0" y="22.0"/>
      <point x="428.0" y="0.0"/>
      <point x="400.0" y="0.0" type="curve" smooth="yes"/>
      <point x="372.0" y="0.0"/>
      <point x="350.0" y="22.0"/>
      <point x="350.0" y="50.0" type="curve" smooth="yes"/>
      <point x="350.0" y="300.0" type="line" smooth="yes"/>
      <point x="350.0" y="359.0"/>
      <point x="297.0" y="400.0"/>
      <point x="250.0" y="400.0" type="curve" smooth="yes"/>
      <point x="203.0" y="400.0"/>
      <point x="150.0" y="359.0"/>
      <point x="150.0" y="300.0" type="curve" smooth="yes"/>
      <point x="150.0" y="50.0" type="line" smooth="yes"/>
      <point x="150.0" y="22.0"/>
      <point x="128.0" y="0.0"/>
      <point x="100.0" y="0.0" type="curve" smooth="yes"/>
      <point x="72.0" y="0.0"/>
      <point x="50.0" y="22.0"/>
      <point x="50.0" y="50.0" type="curve" smooth="yes"/>
      <point x="50.0" y="183.0"/>
      <point x="50.0" y="317.0"/>
      <point x="50.0" y="450.0" type="curve" smooth="yes"/>
      <point x="50.0" y="478.0"/>
      <point x="72.0" y="500.0"/>
    </contour>
  </outline>
</glyph>
<glyph name="n" format="2">
  <advance width="500"/>
  <unicode hex="006E"/>
  <outline>
    <contour>
      <point x="100.0" y="500.0" type="curve" smooth="yes"/>
      <point x="120.0" y="500.0"/>
      <point x="138.0" y="488.0"/>
      <point x="146.0" y="470.0" type="curve"/>
      <point x="177.0" y="489.0"/>
      <point x="213.0" y="500.0"/>
      <point x="250.0" y="500.0" type="curve" smooth="yes"/>
      <point x="353.0" y="500.0"/>
      <point x="450.0" y="416.0"/>
      <point x="450.0" y="300.0" type="curve" smooth="yes"/>
      <point x="450.0" y="50.0" type="line" smooth="yes"/>
      <point x="450.0" y="22.0"/>
      <point x="428.0" y="0.0"/>
      <point x="400.0" y="0.0" type="curve" smooth="yes"/>
      <point x="372.0" y="0.0"/>
      <point x="350.0" y="22.0"/>
      <point x="350.0" y="50.0" type="curve" smooth="yes"/>
      <point x="350.0" y="300.0" type="line" smooth="yes"/>
      <point x="350.0" y="359.0"/>
      <point x="297.0" y="400.0"/>
      <point x="250.0" y="400.0" type="curve" smooth="yes"/>
      <point x="203.0" y="400.0"/>
      <point x="150.0" y="359.0"/>
      <point x="150.0" y="300.0" type="curve" smooth="yes"/>
      <point x="150.0" y="50.0" type="line" smooth="yes"/>
      <point x="150.0" y="22.0"/>
      <point x="128.0" y="0.0"/>
      <point x="100.0" y="0.0" type="curve" smooth="yes"/>
      <point x="72.0" y="0.0"/>
      <point x="50.0" y="22.0"/>
      <point x="50.0" y="50.0" type="curve" smooth="yes"/>
      <point x="50.0" y="183.0"/>
      <point x="50.0" y="317.0"/>
      <point x="50.0" y="450.0" type="curve" smooth="yes"/>
      <point x="50.0" y="478.0"/>
      <point x="72.0" y="500.0"/>
    </contour>
  </outline>
</glyph>
<glyph name="o" format="2">
  <advance width="500"/>
  <unicode hex="006F"/>
  <outline>
    <contour>
      <point x="250.0" y="500.0" type="curve" smooth="yes"/>
      <point x="353.0" y="500.0"/>
      <point x="450.0" y="416.0"/>
      <point x="450.0" y="300.0" type="curve" smooth="yes"/>
      <point x="450.0" y="200.0" type="line" smooth="yes"/>
      <point x="450.0" y="84.0"/>
      <point x="353.0" y="0.0"/>
      <point x="250.0" y="0.0" type="curve" smooth="yes"/>
      <point x="147.0" y="0.0"/>
      <point x="50.0" y="84.0"/>
      <point x="50.0" y="200.0" type="curve" smooth="yes"/>
      <point x="50.0" y="300.0" type="line" smooth="yes"/>
      <point x="50.0" y="416.0"/>
      <point x="147.0" y="500.0"/>
    </contour>
    <contour>
      <point x="250.0" y="400.0" type="curve" smooth="yes"/>
      <point x="203.0" y="400.0"/>
      <point x="150.0" y="359.0"/>
      <point x="150.0" y="300.0" type="curve" smooth="yes"/>
      <point x="150.0" y="200.0" type="line" smooth="yes"/>
      <point x="150.0" y="141.0"/>
      <point x="203.0" y="100.0"/>
      <point x="250.0" y="100.0" type="curve" smooth="yes"/>
      <point x="297.0" y="100.0"/>
      <point x="350.0" y="141.0"/>
      <point x="350.0" y="200.0" type="curve" smooth="yes"/>
      <point x="350.0" y="300.0" type="line" smooth="yes"/>
      <point x="350.0" y="359.0"/>
      <point x="297.0" y="400.0"/>
    </contour>
  </outline>
</glyph>
<glyph name="r" format="2">
  <advance width="400"/>
  <unicode hex="0072"/>
  <outline>
    <contour>
      <point x="350.0" y="441.0" type="curve" smooth="yes"/>
      <point x="350.0" y="411.0"/>
      <point x="326.0" y="391.0"/>
      <point x="300.0" y="391.0" type="curve" smooth="yes"/>
      <point x="294.0" y="391.0"/>
      <point x="288.0" y="392.0"/>
      <point x="283.0" y="394.0" type="curve" smooth="yes"/>
      <point x="272.0" y="398.0"/>
      <point x="261.0" y="400.0"/>
      <point x="250.0" y="400.0" type="curve" smooth="yes"/>
      <point x="203.0" y="400.0"/>
      <point x="150.0" y="359.0"/>
      <point x="150.0" y="300.0" type="curve" smooth="yes"/>
      <point x="150.0" y="50.0" type="line" smooth="yes"/>
      <point x="150.0" y="22.0"/>
      <point x="128.0" y="0.0"/>
      <point x="100.0" y="0.0" type="curve" smooth="yes"/>
      <point x="72.0" y="0.0"/>
      <point x="50.0" y="22.0"/>
      <point x="50.0" y="50.0" type="curve" smooth="yes"/>
      <point x="50.0" y="183.0"/>
      <point x="50.0" y="317.0"/>
      <point x="50.0" y="450.0" type="curve" smooth="yes"/>
      <point x="50.0" y="478.0"/>
      <point x="72.0" y="500.0"/>
      <point x="100.0" y="500.0" type="curve" smooth="yes"/>
      <point x="120.0" y="500.0"/>
      <point x="138.0" y="488.0"/>
      <point x="146.0" y="470.0" type="curve"/>
      <point x="177.0" y="489.0"/>
      <point x="213.0" y="500.0"/>
      <point x="250.0" y="500.0" type="curve" smooth="yes"/>
      <point x="295.0" y="500.0"/>
      <point x="350.0" y="487.0"/>
    </contour>
  </outline>
</glyph>
<glyph name="s" format="2">
  <advance width="500"/>
  <unicode hex="0073"/>
  <outline>
    <contour>
      <point x="50.0" y="350.0" type="curve" smooth="yes"/>
      <point x="50.0" y="450.0"/>
      <point x="148.0" y="500.0"/>
      <point x="250.0" y="500.0" type="curve" smooth="yes"/>
      <point x="300.0" y="500.0"/>
      <point x="356.0" y="497.0"/>
      <point x="426.0" y="455.0" type="curve" smooth="yes"/>
      <point x="441.0" y="446.0"/>
      <point x="450.0" y="430.0"/>
      <point x="450.0" y="412.0" type="curve" smooth="yes"/>
      <point x="450.0" y="383.0"/>
      <point x="427.0" y="363.0"/>
      <point x="400.0" y="363.0" type="curve" smooth="yes"/>
      <point x="391.0" y="363.0"/>
      <point x="382.0" y="365.0"/>
      <point x="374.0" y="370.0" type="curve" smooth="yes"/>
      <point x="327.0" y="398.0"/>
      <point x="306.0" y="400.0"/>
      <point x="269.0" y="400.0" type="curve" smooth="yes"/>
      <point x="263.0" y="400.0"/>
      <point x="257.0" y="400.0"/>
      <point x="250.0" y="400.0" type="curve" smooth="yes"/>
      <point x="213.0" y="400.0"/>
      <point x="185.0" y="391.0"/>
      <point x="169.0" y="381.0" type="curve" smooth="yes"/>
      <point x="153.0" y="371.0"/>
      <point x="150.0" y="365.0"/>
      <point x="150.0" y="350.0" type="curve" smooth="yes"/>
      <point x="150.0" y="335.0"/>
      <point x="153.0" y="329.0"/>
      <point x="169.0" y="319.0" type="curve" smooth="yes"/>
      <point x="185.0" y="309.0"/>
      <point x="213.0" y="300.0"/>
      <point x="250.0" y="300.0" type="curve" smooth="yes"/>
      <point x="352.0" y="300.0"/>
      <point x="450.0" y="250.0"/>
      <point x="450.0" y="150.0" type="curve" smooth="yes"/>
      <point x="450.0" y="50.0"/>
      <point x="352.0" y="0.0"/>
      <point x="250.0" y="0.0" type="curve" smooth="yes"/>
      <point x="200.0" y="0.0"/>
      <point x="144.0" y="3.0"/>
      <point x="74.0" y="45.0" type="curve" smooth="yes"/>
      <point x="59.0" y="54.0"/>
      <point x="50.0" y="70.0"/>
      <point x="50.0" y="88.0" type="curve" smooth="yes"/>
      <point x="50.0" y="117.0"/>
      <point x="73.0" y="137.0"/>
      <point x="100.0" y="137.0" type="curve" smooth="yes"/>
      <point x="109.0" y="137.0"/>
      <point x="118.0" y="135.0"/>
      <point x="126.0" y="130.0" type="curve" smooth="yes"/>
      <point x="173.0" y="102.0"/>
      <point x="194.0" y="100.0"/>
      <point x="231.0" y="100.0" type="curve" smooth="yes"/>
      <point x="237.0" y="100.0"/>
      <point x="243.0" y="100.0"/>
      <point x="250.0" y="100.0" type="curve" smooth="yes"/>
      <point x="287.0" y="100.0"/>
      <point x="315.0" y="109.0"/>
      <point x="331.0" y="119.0" type="curve" smooth="yes"/>
      <point x="347.0" y="129.0"/>
      <point x="350.0" y="135.0"/>
      <point x="350.0" y="150.0" type="curve" smooth="yes"/>
      <point x="350.0" y="165.0"/>
      <point x="347.0" y="171.0"/>
      <point x="331.0" y="181.0" type="curve" smooth="yes"/>
      <point x="315.0" y="191.0"/>
      <point x="287.0" y="200.0"/>
      <point x="250.0" y="200.0" type="curve" smooth="yes"/>
      <point x="148.0" y="200.0"/>
      <point x="50.0" y="250.0"/>
    </contour>
  </outline>
</glyph>
<glyph name="t" format="2">
  <advance width="350"/>
  <unicode hex="0074"/>
  <outline>
    <contour>
      <point x="150.0" y="650.0" type="curve" smooth="yes"/>
      <point x="178.0" y="650.0"/>
      <point x="200.0" y="628.0"/>
      <point x="200.0" y="600.0" type="curve" smooth="yes"/>
      <point x="200.0" y="500.0" type="line"/>
      <point x="250.0" y="500.0" type="line" smooth="yes"/>
      <point x="278.0" y="500.0"/>
      <point x="300.0" y="478.0"/>
      <point x="300.0" y="450.0" type="curve" smooth="yes"/>
      <point x="300.0" y="422.0"/>
      <point x="278.0" y="400.0"/>
      <point x="250.0" y="400.0" type="curve" smooth="yes"/>
      <point x="200.0" y="400.0" type="line"/>
      <point x="200.0" y="150.0" type="line" smooth="yes"/>
      <point x="200.0" y="125.0"/>
      <point x="214.0" y="100.0"/>
      <point x="250.0" y="100.0" type="curve" smooth="yes"/>
      <point x="278.0" y="100.0"/>
      <point x="300.0" y="78.0"/>
      <point x="300.0" y="50.0" type="curve" smooth="yes"/>
      <point x="300.0" y="22.0"/>
      <point x="278.0" y="0.0"/>
      <point x="250.0" y="0.0" type="curve" smooth="yes"/>
      <point x="161.0" y="0.0"/>
      <point x="100.0" y="75.0"/>
      <point x="100.0" y="150.0" type="curve" smooth="yes"/>
      <point x="100.0" y="400.0" type="line"/>
      <point x="72.0" y="400.0"/>
      <point x="50.0" y="422.0"/>
      <point x="50.0" y="450.0" type="curve" smooth="yes"/>
      <point x="50.0" y="478.0"/>
      <point x="72.0" y="500.0"/>
      <point x="100.0" y="500.0" type="curve"/>
      <point x="100.0" y="600.0" type="line" smooth="yes"/>
      <point x="100.0" y="628.0"/>
      <point x="122.0" y="650.0"/>
    </contour>
  </outline>
</glyph>
<glyph name="v" format="2">
  <advance width="500"/>
  <unicode hex="0076"/>
  <outline>
    <contour>
      <point x="50.0" y="450.0" type="curve" smooth="yes"/>
      <point x="50.0" y="476.0"/>
      <point x="70.0" y="500.0"/>
      <point x="100.0" y="500.0" type="curve" smooth="yes"/>
      <point x="122.0" y="500.0"/>
      <point x="140.0" y="487.0"/>
      <point x="147.0" y="468.0" type="curve" smooth="yes"/>
      <point x="250.0" y="192.0" type="line"/>
      <point x="353.0" y="468.0" type="line" smooth="yes"/>
      <point x="360.0" y="487.0"/>
      <point x="379.0" y="500.0"/>
      <point x="400.0" y="500.0" type="curve" smooth="yes"/>
      <point x="430.0" y="500.0"/>
      <point x="450.0" y="476.0"/>
      <point x="450.0" y="450.0" type="curve" smooth="yes"/>
      <point x="450.0" y="444.0"/>
      <point x="449.0" y="437.0"/>
      <point x="447.0" y="432.0" type="curve" smooth="yes"/>
      <point x="297.0" y="32.0" type="line" smooth="yes"/>
      <point x="290.0" y="13.0"/>
      <point x="271.0" y="0.0"/>
      <point x="250.0" y="0.0" type="curve" smooth="yes"/>
      <point x="229.0" y="0.0"/>
      <point x="210.0" y="13.0"/>
      <point x="203.0" y="32.0" type="curve" smooth="yes"/>
      <point x="53.0" y="432.0" type="line" smooth="yes"/>
      <point x="51.0" y="437.0"/>
      <point x="50.0" y="444.0"/>
    </contour>
  </outline>
</glyph>
<glyph name="w" format="2">
  <advance width="700"/>
  <unicode hex="0077"/>
  <outline>
    <contour>
      <point x="50.0" y="450.0" type="curve" smooth="yes"/>
      <point x="50.0" y="476.0"/>
      <point x="70.0" y="500.0"/>
      <point x="100.0" y="500.0" type="curve" smooth="yes"/>
      <point x="123.0" y="500.0"/>
      <point x="142.0" y="485.0"/>
      <point x="148.0" y="465.0" type="curve" smooth="yes"/>
      <point x="225.0" y="218.0" type="line"/>
      <point x="302.0" y="465.0" type="line" smooth="yes"/>
      <point x="308.0" y="485.0"/>
      <point x="328.0" y="500.0"/>
      <point x="350.0" y="500.0" type="curve" smooth="yes"/>
      <point x="372.0" y="500.0"/>
      <point x="392.0" y="485.0"/>
      <point x="398.0" y="465.0" type="curve" smooth="yes"/>
      <point x="475.0" y="218.0" type="line"/>
      <point x="552.0" y="465.0" type="line" smooth="yes"/>
      <point x="558.0" y="485.0"/>
      <point x="577.0" y="500.0"/>
      <point x="600.0" y="500.0" type="curve" smooth="yes"/>
      <point x="630.0" y="500.0"/>
      <point x="650.0" y="476.0"/>
      <point x="650.0" y="450.0" type="curve" smooth="yes"/>
      <point x="650.0" y="445.0"/>
      <point x="649.0" y="440.0"/>
      <point x="648.0" y="435.0" type="curve" smooth="yes"/>
      <point x="523.0" y="35.0" type="line" smooth="yes"/>
      <point x="517.0" y="15.0"/>
      <point x="497.0" y="0.0"/>
      <point x="475.0" y="0.0" type="curve" smooth="yes"/>
      <point x="453.0" y="0.0"/>
      <point x="433.0" y="15.0"/>
      <point x="427.0" y="35.0" type="curve" smooth="yes"/>
      <point x="350.0" y="282.0" type="line"/>
      <point x="273.0" y="35.0" type="line" smooth="yes"/>
      <point x="267.0" y="15.0"/>
      <point x="247.0" y="0.0"/>
      <point x="225.0" y="0.0" type="curve" smooth="yes"/>
      <point x="203.0" y="0.0"/>
      <point x="183.0" y="15.0"/>
      <point x="177.0" y="35.0" type="curve" smooth="yes"/>
      <point x="52.0" y="435.0" type="line" smooth="yes"/>
      <point x="51.0" y="440.0"/>
      <point x="50.0" y="445.0"/>
    </contour>
  </outline>
</glyph>
<glyph name="x" format="2">
  <advance width="500"/>
  <unicode hex="0078"/>
  <outline>
    <contour>
      <point x="50.0" y="450.0" type="curve" smooth="yes"/>
      <point x="50.0" y="477.0"/>
      <point x="71.0" y="500.0"/>
      <point x="100.0" y="500.0" type="curve" smooth="yes"/>
      <point x="118.0" y="500.0"/>
      <point x="131.0" y="492.0"/>
      <point x="140.0" y="480.0" type="curve" smooth="yes"/>
      <point x="250.0" y="333.0" type="line"/>
      <point x="360.0" y="480.0" type="line" smooth="yes"/>
      <point x="369.0" y="492.0"/>
      <point x="382.0" y="500.0"/>
      <point x="400.0" y="500.0" type="curve" smooth="yes"/>
      <point x="429.0" y="500.0"/>
      <point x="450.0" y="477.0"/>
      <point x="450.0" y="450.0" type="curve" smooth="yes"/>
      <point x="450.0" y="439.0"/>
      <point x="446.0" y="428.0"/>
      <point x="440.0" y="420.0" type="curve" smooth="yes"/>
      <point x="312.0" y="250.0" type="line"/>
      <point x="440.0" y="80.0" type="line" smooth="yes"/>
      <point x="446.0" y="72.0"/>
      <point x="450.0" y="61.0"/>
      <point x="450.0" y="50.0" type="curve" smooth="yes"/>
      <point x="450.0" y="23.0"/>
      <point x="428.0" y="0.0"/>
      <point x="400.0" y="0.0" type="curve" smooth="yes"/>
      <point x="384.0" y="0.0"/>
      <point x="369.0" y="8.0"/>
      <point x="360.0" y="20.0" type="curve" smooth="yes"/>
      <point x="250.0" y="167.0" type="line"/>
      <point x="140.0" y="20.0" type="line" smooth="yes"/>
      <point x="131.0" y="8.0"/>
      <point x="116.0" y="0.0"/>
      <point x="100.0" y="0.0" type="curve" smooth="yes"/>
      <point x="71.0" y="0.0"/>
      <point x="50.0" y="23.0"/>
      <point x="50.0" y="50.0" type="curve" smooth="yes"/>
      <point x="50.0" y="61.0"/>
      <point x="54.0" y="72.0"/>
      <point x="60.0" y="80.0" type="curve" smooth="yes"/>
      <point x="188.0" y="250.0" type="line"/>
      <point x="60.0" y="420.0" type="line" smooth="yes"/>
      <point x="54.0" y="428.0"/>
      <point x="50.0" y="439.0"/>
    </contour>
  </outline>
</glyph>
<glyph name="y" format="2">
  <advance width="500"/>
  <unicode hex="0079"/>
  <outline>
    <contour>
      <point x="50.0" y="450.0" type="curve" smooth="yes"/>
      <point x="50.0" y="476.0"/>
      <point x="70.0" y="500.0"/>
      <point x="100.0" y="500.0" type="curve" smooth="yes"/>
      <point x="122.0" y="500.0"/>
      <point x="140.0" y="487.0"/>
      <point x="147.0" y="468.0" type="curve" smooth="yes"/>
      <point x="250.0" y="192.0" type="line"/>
      <point x="353.0" y="468.0" type="line" smooth="yes"/>
      <point x="360.0" y="487.0"/>
      <point x="379.0" y="500.0"/>
      <point x="400.0" y="500.0" type="curve" smooth="yes"/>
      <point x="430.0" y="500.0"/>
      <point x="450.0" y="476.0"/>
      <point x="450.0" y="450.0" type="curve" smooth="yes"/>
      <point x="450.0" y="444.0"/>
      <point x="449.0" y="437.0"/>
      <point x="447.0" y="432.0" type="curve" smooth="yes"/>
      <point x="241.0" y="-118.0" type="line" smooth="yes"/>
      <point x="221.0" y="-171.0"/>
      <point x="167.0" y="-200.0"/>
      <point x="125.0" y="-200.0" type="curve" smooth="yes"/>
      <point x="97.0" y="-200.0"/>
      <point x="75.0" y="-178.0"/>
      <point x="75.0" y="-150.0" type="curve" smooth="yes"/>
      <point x="75.0" y="-122.0"/>
      <point x="97.0" y="-100.0"/>
      <point x="125.0" y="-100.0" type="curve" smooth="yes"/>
      <point x="126.0" y="-100.0"/>
      <point x="127.0" y="-100.0"/>
      <point x="128.0" y="-100.0" type="curve" smooth="yes"/>
      <point x="134.0" y="-100.0"/>
      <point x="140.0" y="-99.0"/>
      <point x="148.0" y="-81.0" type="curve"/>
      <point x="197.0" y="50.0" type="line"/>
      <point x="53.0" y="432.0" type="line" smooth="yes"/>
      <point x="51.0" y="437.0"/>
      <point x="50.0" y="444.0"/>
    </contour>
  </outline>
</glyph>
<glyph name="z" format="2">
  <advance width="500"/>
  <unicode hex="007A"/>
  <outline>
    <contour>
      <point x="100.0" y="500.0" type="curve" smooth="yes"/>
      <point x="400.0" y="500.0" type="line" smooth="yes"/>
      <point x="428.0" y="500.0"/>
      <point x="450.0" y="478.0"/>
      <point x="450.0" y="450.0" type="curve" smooth="yes"/>
      <point x="450.0" y="439.0"/>
      <point x="446.0" y="428.0"/>
      <point x="440.0" y="420.0" type="curve" smooth="yes"/>
      <point x="200.0" y="100.0" type="line"/>
      <point x="400.0" y="100.0" type="line" smooth="yes"/>
      <point x="428.0" y="100.0"/>
      <point x="450.0" y="78.0"/>
      <point x="450.0" y="50.0" type="curve" smooth="yes"/>
      <point x="450.0" y="22.0"/>
      <point x="428.0" y="0.0"/>
      <point x="400.0" y="0.0" type="curve" smooth="yes"/>
      <point x="100.0" y="0.0" type="line" smooth="yes"/>
      <point x="72.0" y="0.0"/>
      <point x="50.0" y="22.0"/>
      <point x="50.0" y="50.0" type="curve" smooth="yes"/>
      <point x="50.0" y="61.0"/>
      <point x="54.0" y="72.0"/>
      <point x="60.0" y="80.0" type="curve" smooth="yes"/>
      <point x="300.0" y="400.0" type="line"/>
      <point x="100.0" y="400.0" type="line" smooth="yes"/>
      <point x="72.0" y="400.0"/>
      <point x="50.0" y="422.0"/>
      <point x="50.0" y="450.0" type="curve" smooth="yes"/>
      <point x="50.0" y="478.0"/>
      <point x="72.0" y="500.0"/>
    </contour>
  </outline>
</glyph>
<glyph name="endash" format="2">
  <advance width="600"/>
  <unicode hex="2013"/>
  <outline>
    <contour>
      <point x="100.0" y="300.0" type="curve" smooth="yes"/>
      <point x="500.0" y="300.0" type="line" smooth="yes"/>
      <point x="528.0" y="300.0"/>
      <point x="550.0" y="278.0"/>
      <point x="550.0" y="250.0" type="curve" smooth="yes"/>
      <point x="550.0" y="222.0"/>
      <point x="528.0" y="200.0"/>
      <point x="500.0" y="200.0" type="curve" smooth="yes"/>
      <point x="100.0" y="200.0" type="line" smooth="yes"/>
      <point x="72.0" y="200.0"/>
      <point x="50.0" y="222.0"/>
      <point x="50.0" y="250.0" type="curve" smooth="yes"/>
      <point x="50.0" y="278.0"/>
      <point x="72.0" y="300.0"/>
    </contour>
  </outline>
</glyph>
<glyph name="emdash" format="2">
  <advance width="1000"/>
  <unicode hex="2014"/>
  <outline>
    <contour>
      <point x="50.0" y="300.0" type="curve" smooth="yes"/>
      <point x="950.0" y="300.0" type="line" smooth="yes"/>
      <point x="978.0" y="300.0"/>
      <point x="1000.0" y="278.0"/>
      <point x="1000.0" y="250.0" type="curve" smooth="yes"/>
      <point x="1000.0" y="222.0"/>
      <point x="978.0" y="200.0"/>
      <point x="950.0" y="200.0" type="curve" smooth="yes"/>
      <point x="50.0" y="200.0" type="line" smooth="yes"/>
      <point x="22.0" y="200.0"/>
      <point x="0.0" y="222.0"/>
      <point x="0.0" y="250.0" type="curve" smooth="yes"/>
      <point x="0.0" y="278.0"/>
      <point x="22.0" y="300.0"/>
    </contour>
  </outline>
</glyph>
<glyph name="uniE650" format="2">
  <advance width="450"/>
  <unicode hex="E650"/>
  <outline>
    <contour>
      <point x="300.0" y="800.0" type="curve" smooth="yes"/>
      <point x="350.0" y="800.0" type="line" smooth="yes"/>
      <point x="378.0" y="800.0"/>
      <point x="400.0" y="778.0"/>
      <point x="400.0" y="750.0" type="curve" smooth="yes"/>
      <point x="400.0" y="50.0" type="line" smooth="yes"/>
      <point x="400.0" y="22.0"/>
      <point x="378.0" y="0.0"/>
      <point x="350.0" y="0.0" type="curve" smooth="yes"/>
      <point x="322.0" y="0.0"/>
      <point x="300.0" y="22.0"/>
      <point x="300.0" y="50.0" type="curve" smooth="yes"/>
      <point x="300.0" y="700.0" type="line"/>
      <point x="217.0" y="700.0"/>
      <point x="150.0" y="633.0"/>
      <point x="150.0" y="550.0" type="curve" smooth="yes"/>
      <point x="150.0" y="450.0" type="line" smooth="yes"/>
      <point x="150.0" y="422.0"/>
      <point x="128.0" y="400.0"/>
      <point x="100.0" y="400.0" type="curve" smooth="yes"/>
      <point x="72.0" y="400.0"/>
      <point x="50.0" y="422.0"/>
      <point x="50.0" y="450.0" type="curve" smooth="yes"/>
      <point x="50.0" y="550.0" type="line" smooth="yes"/>
      <point x="50.0" y="687.0"/>
      <point x="163.0" y="800.0"/>
    </contour>
  </outline>
</glyph>
<glyph name="uniE651" format="2">
  <advance width="500"/>
  <unicode hex="E651"/>
  <outline>
    <contour>
      <point x="400.0" y="500.0" type="curve" smooth="yes"/>
      <point x="428.0" y="500.0"/>
      <point x="450.0" y="478.0"/>
      <point x="450.0" y="450.0" type="curve" smooth="yes"/>
      <point x="450.0" y="217.0"/>
      <point x="450.0" y="-17.0"/>
      <point x="450.0" y="-250.0" type="curve" smooth="yes"/>
      <point x="450.0" y="-278.0"/>
      <point x="428.0" y="-300.0"/>
      <point x="400.0" y="-300.0" type="curve" smooth="yes"/>
      <point x="250.0" y="-300.0" type="line" smooth="yes"/>
      <point x="147.0" y="-300.0"/>
      <point x="50.0" y="-216.0"/>
      <point x="50.0" y="-100.0" type="curve" smooth="yes"/>
      <point x="50.0" y="16.0"/>
      <point x="147.0" y="100.0"/>
      <point x="250.0" y="100.0" type="curve" smooth="yes"/>
      <point x="350.0" y="100.0" type="line"/>
      <point x="350.0" y="450.0" type="line" smooth="yes"/>
      <point x="350.0" y="478.0"/>
      <point x="372.0" y="500.0"/>
    </contour>
    <contour>
      <point x="250.0" y="0.0" type="line" smooth="yes"/>
      <point x="203.0" y="0.0"/>
      <point x="150.0" y="-41.0"/>
      <point x="150.0" y="-100.0" type="curve" smooth="yes"/>
      <point x="150.0" y="-159.0"/>
      <point x="203.0" y="-200.0"/>
      <point x="250.0" y="-200.0" type="curve" smooth="yes"/>
      <point x="350.0" y="-200.0" type="line"/>
      <point x="350.0" y="0.0" type="line"/>
    </contour>
  </outline>
</glyph>
<glyph name="uniE652" format="2">
  <advance width="200"/>
  <unicode hex="E652"/>
  <outline>
    <contour>
      <point x="100.0" y="800.0" type="curve" smooth="yes"/>
      <point x="128.0" y="800.0"/>
      <point x="150.0" y="778.0"/>
      <point x="150.0" y="750.0" type="curve" smooth="yes"/>
      <point x="150.0" y="50.0" type="line" smooth="yes"/>
      <point x="150.0" y="22.0"/>
      <point x="128.0" y="0.0"/>
      <point x="100.0" y="0.0" type="curve" smooth="yes"/>
      <point x="72.0" y="0.0"/>
      <point x="50.0" y="22.0"/>
      <point x="50.0" y="50.0" type="curve" smooth="yes"/>
      <point x="50.0" y="750.0" type="line" smooth="yes"/>
      <point x="50.0" y="778.0"/>
      <point x="72.0" y="800.0"/>
    </contour>
  </outline>
</glyph>
<glyph name="uniE653" format="2">
  <advance width="450"/>
  <unicode hex="E653"/>
  <outline>
    <contour>
      <point x="350.0" y="100.0" type="curve" smooth="yes"/>
      <point x="378.0" y="100.0"/>
      <point x="400.0" y="77.0"/>
      <point x="400.0" y="50.0" type="curve" smooth="yes"/>
      <point x="400.0" y="38.0"/>
      <point x="395.0" y="27.0"/>
      <point x="388.0" y="18.0" type="curve" smooth="yes"/>
      <point x="138.0" y="-282.0" type="line" smooth="yes"/>
      <point x="129.0" y="-293.0"/>
      <point x="115.0" y="-300.0"/>
      <point x="100.0" y="-300.0" type="curve" smooth="yes"/>
      <point x="72.0" y="-300.0"/>
      <point x="50.0" y="-278.0"/>
      <point x="50.0" y="-250.0" type="curve" smooth="yes"/>
      <point x="50.0" y="450.0" type="line" smooth="yes"/>
      <point x="50.0" y="478.0"/>
      <point x="72.0" y="500.0"/>
      <point x="100.0" y="500.0" type="curve" smooth="yes"/>
      <point x="128.0" y="500.0"/>
      <point x="150.0" y="478.0"/>
      <point x="150.0" y="450.0" type="curve" smooth="yes"/>
      <point x="150.0" y="-112.0" type="line"/>
      <point x="312.0" y="82.0" type="line" smooth="yes"/>
      <point x="321.0" y="93.0"/>
      <point x="335.0" y="100.0"/>
    </contour>
  </outline>
</glyph>
<glyph name="uniE654" format="2">
  <advance width="450"/>
  <unicode hex="E654"/>
  <outline>
    <contour>
      <point x="100.0" y="750.0" type="curve" smooth="yes"/>
      <point x="100.0" y="776.0"/>
      <point x="121.0" y="800.0"/>
      <point x="150.0" y="800.0" type="curve" smooth="yes"/>
      <point x="169.0" y="800.0"/>
      <point x="184.0" y="790.0"/>
      <point x="193.0" y="775.0" type="curve" smooth="yes"/>
      <point x="393.0" y="425.0" type="line" smooth="yes"/>
      <point x="397.0" y="418.0"/>
      <point x="400.0" y="409.0"/>
      <point x="400.0" y="400.0" type="curve" smooth="yes"/>
      <point x="400.0" y="372.0"/>
      <point x="378.0" y="350.0"/>
      <point x="350.0" y="350.0" type="curve" smooth="yes"/>
      <point x="336.0" y="350.0"/>
      <point x="324.0" y="356.0"/>
      <point x="315.0" y="365.0" type="curve" smooth="yes"/>
      <point x="290.0" y="390.0"/>
      <point x="283.0" y="400.0"/>
      <point x="250.0" y="400.0" type="curve" smooth="yes"/>
      <point x="203.0" y="400.0"/>
      <point x="150.0" y="359.0"/>
      <point x="150.0" y="300.0" type="curve" smooth="yes"/>
      <point x="150.0" y="250.0" type="line" smooth="yes"/>
      <point x="150.0" y="167.0"/>
      <point x="217.0" y="100.0"/>
      <point x="300.0" y="100.0" type="curve" smooth="yes"/>
      <point x="350.0" y="100.0" type="line" smooth="yes"/>
      <point x="378.0" y="100.0"/>
      <point x="400.0" y="78.0"/>
      <point x="400.0" y="50.0" type="curve" smooth="yes"/>
      <point x="400.0" y="22.0"/>
      <point x="378.0" y="0.0"/>
      <point x="350.0" y="0.0" type="curve" smooth="yes"/>
      <point x="300.0" y="0.0" type="line" smooth="yes"/>
      <point x="163.0" y="0.0"/>
      <point x="50.0" y="113.0"/>
      <point x="50.0" y="250.0" type="curve" smooth="yes"/>
      <point x="50.0" y="300.0" type="line" smooth="yes"/>
      <point x="50.0" y="411.0"/>
      <point x="139.0" y="492.0"/>
      <point x="236.0" y="499.0" type="curve"/>
      <point x="107.0" y="725.0" type="line" smooth="yes"/>
      <point x="103.0" y="732.0"/>
      <point x="100.0" y="741.0"/>
    </contour>
  </outline>
</glyph>
<glyph name="uniE658" format="2">
  <advance width="500"/>
  <unicode hex="E658"/>
  <outline>
    <contour>
      <point x="250.0" y="800.0" type="curve" smooth="yes"/>
      <point x="353.0" y="800.0"/>
      <point x="450.0" y="716.0"/>
      <point x="450.0" y="600.0" type="curve" smooth="yes"/>
      <point x="450.0" y="467.0"/>
      <point x="450.0" y="333.0"/>
      <point x="450.0" y="200.0" type="curve" smooth="yes"/>
      <point x="450.0" y="84.0"/>
      <point x="353.0" y="0.0"/>
      <point x="250.0" y="0.0" type="curve" smooth="yes"/>
      <point x="147.0" y="0.0"/>
      <point x="50.0" y="84.0"/>
      <point x="50.0" y="200.0" type="curve" smooth="yes"/>
      <point x="50.0" y="300.0" type="line" smooth="yes"/>
      <point x="50.0" y="416.0"/>
      <point x="147.0" y="500.0"/>
      <point x="250.0" y="500.0" type="curve" smooth="yes"/>
      <point x="350.0" y="500.0" type="line"/>
      <point x="350.0" y="600.0" type="line" smooth="yes"/>
      <point x="350.0" y="659.0"/>
      <point x="297.0" y="700.0"/>
      <point x="250.0" y="700.0" type="curve" smooth="yes"/>
      <point x="222.0" y="700.0"/>
      <point x="200.0" y="722.0"/>
      <point x="200.0" y="750.0" type="curve" smooth="yes"/>
      <point x="200.0" y="778.0"/>
      <point x="222.0" y="800.0"/>
    </contour>
    <contour>
      <point x="250.0" y="400.0" type="line" smooth="yes"/>
      <point x="203.0" y="400.0"/>
      <point x="150.0" y="359.0"/>
      <point x="150.0" y="300.0" type="curve" smooth="yes"/>
      <point x="150.0" y="200.0" type="line" smooth="yes"/>
      <point x="150.0" y="141.0"/>
      <point x="203.0" y="100.0"/>
      <point x="250.0" y="100.0" type="curve" smooth="yes"/>
      <point x="297.0" y="100.0"/>
      <point x="350.0" y="141.0"/>
      <point x="350.0" y="200.0" type="curve" smooth="yes"/>
      <point x="350.0" y="400.0" type="line"/>
    </contour>
  </outline>
</glyph>
<glyph name="uniE659" format="2">
  <advance width="500"/>
  <unicode hex="E659"/>
  <outline>
    <contour>
      <point x="388.0" y="-150.0" type="curve" smooth="yes"/>
      <point x="416.0" y="-150.0"/>
      <point x="438.0" y="-172.0"/>
      <point x="438.0" y="-200.0" type="curve" smooth="yes"/>
      <point x="438.0" y="-214.0"/>
      <point x="432.0" y="-226.0"/>
      <point x="423.0" y="-235.0" type="curve" smooth="yes"/>
      <point x="361.0" y="-297.0"/>
      <point x="288.0" y="-300.0"/>
      <point x="250.0" y="-300.0" type="curve" smooth="yes"/>
      <point x="147.0" y="-300.0"/>
      <point x="50.0" y="-216.0"/>
      <point x="50.0" y="-100.0" type="curve" smooth="yes"/>
      <point x="50.0" y="33.0"/>
      <point x="50.0" y="167.0"/>
      <point x="50.0" y="300.0" type="curve" smooth="yes"/>
      <point x="50.0" y="416.0"/>
      <point x="147.0" y="500.0"/>
      <point x="250.0" y="500.0" type="curve" smooth="yes"/>
      <point x="353.0" y="500.0"/>
      <point x="450.0" y="416.0"/>
      <point x="450.0" y="300.0" type="curve" smooth="yes"/>
      <point x="450.0" y="200.0" type="line" smooth="yes"/>
      <point x="450.0" y="84.0"/>
      <point x="353.0" y="0.0"/>
      <point x="250.0" y="0.0" type="curve" smooth="yes"/>
      <point x="150.0" y="0.0" type="line"/>
      <point x="150.0" y="-100.0" type="line" smooth="yes"/>
      <point x="150.0" y="-159.0"/>
      <point x="203.0" y="-200.0"/>
      <point x="250.0" y="-200.0" type="curve" smooth="yes"/>
      <point x="255.0" y="-200.0"/>
      <point x="259.0" y="-200.0"/>
      <point x="264.0" y="-200.0" type="curve" smooth="yes"/>
      <point x="294.0" y="-200.0"/>
      <point x="319.0" y="-198.0"/>
      <point x="352.0" y="-165.0" type="curve" smooth="yes"/>
      <point x="361.0" y="-156.0"/>
      <point x="374.0" y="-150.0"/>
    </contour>
    <contour>
      <point x="250.0" y="400.0" type="curve" smooth="yes"/>
      <point x="203.0" y="400.0"/>
      <point x="150.0" y="359.0"/>
      <point x="150.0" y="300.0" type="curve" smooth="yes"/>
      <point x="150.0" y="100.0" type="line"/>
      <point x="250.0" y="100.0" type="line" smooth="yes"/>
      <point x="297.0" y="100.0"/>
      <point x="350.0" y="141.0"/>
      <point x="350.0" y="200.0" type="curve" smooth="yes"/>
      <point x="350.0" y="300.0" type="line" smooth="yes"/>
      <point x="350.0" y="359.0"/>
      <point x="297.0" y="400.0"/>
    </contour>
  </outline>
</glyph>
<glyph name="uniE65A" format="2">
  <advance width="400"/>
  <unicode hex="E65A"/>
  <outline>
    <contour>
      <point x="250.0" y="800.0" type="curve" smooth="yes"/>
      <point x="300.0" y="800.0" type="line" smooth="yes"/>
      <point x="328.0" y="800.0"/>
      <point x="350.0" y="778.0"/>
      <point x="350.0" y="750.0" type="curve" smooth="yes"/>
      <point x="350.0" y="722.0"/>
      <point x="328.0" y="700.0"/>
      <point x="300.0" y="700.0" type="curve" smooth="yes"/>
      <point x="250.0" y="700.0" type="line" smooth="yes"/>
      <point x="203.0" y="700.0"/>
      <point x="150.0" y="659.0"/>
      <point x="150.0" y="600.0" type="curve" smooth="yes"/>
      <point x="150.0" y="550.0" type="line" smooth="yes"/>
      <point x="150.0" y="516.0"/>
      <point x="158.0" y="501.0"/>
      <point x="170.0" y="486.0" type="curve" smooth="yes"/>
      <point x="182.0" y="471.0"/>
      <point x="201.0" y="458.0"/>
      <point x="226.0" y="442.0" type="curve" smooth="yes"/>
      <point x="251.0" y="426.0"/>
      <point x="282.0" y="409.0"/>
      <point x="307.0" y="378.0" type="curve" smooth="yes"/>
      <point x="332.0" y="347.0"/>
      <point x="350.0" y="303.0"/>
      <point x="350.0" y="250.0" type="curve" smooth="yes"/>
      <point x="350.0" y="200.0" type="line" smooth="yes"/>
      <point x="350.0" y="84.0"/>
      <point x="253.0" y="0.0"/>
      <point x="150.0" y="0.0" type="curve" smooth="yes"/>
      <point x="100.0" y="0.0" type="line" smooth="yes"/>
      <point x="72.0" y="0.0"/>
      <point x="50.0" y="22.0"/>
      <point x="50.0" y="50.0" type="curve" smooth="yes"/>
      <point x="50.0" y="78.0"/>
      <point x="72.0" y="100.0"/>
      <point x="100.0" y="100.0" type="curve" smooth="yes"/>
      <point x="150.0" y="100.0" type="line" smooth="yes"/>
      <point x="197.0" y="100.0"/>
      <point x="250.0" y="141.0"/>
      <point x="250.0" y="200.0" type="curve" smooth="yes"/>
      <point x="250.0" y="250.0" type="line" smooth="yes"/>
      <point x="250.0" y="284.0"/>
      <point x="242.0" y="299.0"/>
      <point x="230.0" y="314.0" type="curve" smooth="yes"/>
      <point x="218.0" y="329.0"/>
      <point x="199.0" y="342.0"/>
      <point x="174.0" y="358.0" type="curve" smooth="yes"/>
      <point x="149.0" y="374.0"/>
      <point x="118.0" y="391.0"/>
      <point x="93.0" y="422.0" type="curve" smooth="yes"/>
      <point x="68.0" y="453.0"/>
      <point x="50.0" y="497.0"/>
      <point x="50.0" y="550.0" type="curve" smooth="yes"/>
      <point x="50.0" y="600.0" type="line" smooth="yes"/>
      <point x="50.0" y="716.0"/>
      <point x="147.0" y="800.0"/>
    </contour>
  </outline>
</glyph>
<glyph name="uniE65C" format="2">
  <advance width="450"/>
  <unicode hex="E65C"/>
  <outline>
    <contour>
      <point x="350.0" y="800.0" type="curve" smooth="yes"/>
      <point x="379.0" y="800.0"/>
      <point x="400.0" y="777.0"/>
      <point x="400.0" y="750.0" type="curve" smooth="yes"/>
      <point x="400.0" y="741.0"/>
      <point x="398.0" y="732.0"/>
      <point x="393.0" y="724.0" type="curve" smooth="yes"/>
      <point x="181.0" y="376.0" type="line"/>
      <point x="168.0" y="351.0"/>
      <point x="150.0" y="313.0"/>
      <point x="150.0" y="250.0" type="curve" smooth="yes"/>
      <point x="150.0" y="190.0"/>
      <point x="165.0" y="157.0"/>
      <point x="188.0" y="135.0" type="curve" smooth="yes"/>
      <point x="211.0" y="113.0"/>
      <point x="246.0" y="100.0"/>
      <point x="300.0" y="100.0" type="curve" smooth="yes"/>
      <point x="350.0" y="100.0" type="line" smooth="yes"/>
      <point x="378.0" y="100.0"/>
      <point x="400.0" y="78.0"/>
      <point x="400.0" y="50.0" type="curve" smooth="yes"/>
      <point x="400.0" y="22.0"/>
      <point x="378.0" y="0.0"/>
      <point x="350.0" y="0.0" type="curve" smooth="yes"/>
      <point x="300.0" y="0.0" type="line" smooth="yes"/>
      <point x="229.0" y="0.0"/>
      <point x="165.0" y="18.0"/>
      <point x="119.0" y="62.0" type="curve" smooth="yes"/>
      <point x="73.0" y="106.0"/>
      <point x="50.0" y="172.0"/>
      <point x="50.0" y="250.0" type="curve" smooth="yes"/>
      <point x="50.0" y="338.0"/>
      <point x="80.0" y="401.0"/>
      <point x="95.0" y="426.0" type="curve" smooth="yes"/>
      <point x="307.0" y="776.0" type="line" smooth="yes"/>
      <point x="315.0" y="790.0"/>
      <point x="330.0" y="800.0"/>
    </contour>
  </outline>
</glyph>
<glyph name="uniE65E" format="2">
  <advance width="550"/>
  <unicode hex="E65E"/>
  <outline>
    <contour>
      <point x="450.0" y="800.0" type="curve" smooth="yes"/>
      <point x="479.0" y="800.0"/>
      <point x="500.0" y="779.0"/>
      <point x="500.0" y="750.0" type="curve" smooth="yes"/>
      <point x="500.0" y="739.0"/>
      <point x="497.0" y="731.0"/>
      <point x="493.0" y="724.0" type="curve" smooth="yes"/>
      <point x="423.0" y="608.0"/>
      <point x="351.0" y="492.0"/>
      <point x="281.0" y="376.0" type="curve"/>
      <point x="268.0" y="351.0"/>
      <point x="250.0" y="313.0"/>
      <point x="250.0" y="250.0" type="curve" smooth="yes"/>
      <point x="250.0" y="190.0"/>
      <point x="265.0" y="157.0"/>
      <point x="288.0" y="135.0" type="curve" smooth="yes"/>
      <point x="311.0" y="113.0"/>
      <point x="346.0" y="100.0"/>
      <point x="400.0" y="100.0" type="curve" smooth="yes"/>
      <point x="450.0" y="100.0" type="line" smooth="yes"/>
      <point x="478.0" y="100.0"/>
      <point x="500.0" y="78.0"/>
      <point x="500.0" y="50.0" type="curve" smooth="yes"/>
      <point x="500.0" y="22.0"/>
      <point x="478.0" y="0.0"/>
      <point x="450.0" y="0.0" type="curve" smooth="yes"/>
      <point x="400.0" y="0.0" type="line" smooth="yes"/>
      <point x="329.0" y="0.0"/>
      <point x="265.0" y="18.0"/>
      <point x="219.0" y="62.0" type="curve" smooth="yes"/>
      <point x="173.0" y="106.0"/>
      <point x="150.0" y="172.0"/>
      <point x="150.0" y="250.0" type="curve" smooth="yes"/>
      <point x="150.0" y="318.0"/>
      <point x="169.0" y="371.0"/>
      <point x="183.0" y="402.0" type="curve"/>
      <point x="172.0" y="401.0"/>
      <point x="161.0" y="400.0"/>
      <point x="150.0" y="400.0" type="curve" smooth="yes"/>
      <point x="100.0" y="400.0" type="line" smooth="yes"/>
      <point x="72.0" y="400.0"/>
      <point x="50.0" y="422.0"/>
      <point x="50.0" y="450.0" type="curve" smooth="yes"/>
      <point x="50.0" y="478.0"/>
      <point x="72.0" y="500.0"/>
      <point x="100.0" y="500.0" type="curve" smooth="yes"/>
      <point x="150.0" y="500.0" type="line" smooth="yes"/>
      <point x="190.0" y="500.0"/>
      <point x="213.0" y="506.0"/>
      <point x="233.0" y="519.0" type="curve" smooth="yes"/>
      <point x="253.0" y="532.0"/>
      <point x="274.0" y="557.0"/>
      <point x="301.0" y="601.0" type="curve" smooth="yes"/>
      <point x="407.0" y="776.0" type="line" smooth="yes"/>
      <point x="415.0" y="790.0"/>
      <point x="430.0" y="800.0"/>
    </contour>
  </outline>
</glyph>
<glyph name="uniE661" format="2">
  <advance width="400"/>
  <unicode hex="E661"/>
  <outline>
    <contour>
      <point x="300.0" y="500.0" type="curve" smooth="yes"/>
      <point x="330.0" y="500.0"/>
      <point x="350.0" y="476.0"/>
      <point x="350.0" y="450.0" type="curve" smooth="yes"/>
      <point x="350.0" y="445.0"/>
      <point x="349.0" y="440.0"/>
      <point x="348.0" y="436.0" type="curve" smooth="yes"/>
      <point x="148.0" y="-264.0" type="line" smooth="yes"/>
      <point x="142.0" y="-285.0"/>
      <point x="123.0" y="-300.0"/>
      <point x="100.0" y="-300.0" type="curve" smooth="yes"/>
      <point x="70.0" y="-300.0"/>
      <point x="50.0" y="-276.0"/>
      <point x="50.0" y="-250.0" type="curve" smooth="yes"/>
      <point x="50.0" y="-245.0"/>
      <point x="51.0" y="-240.0"/>
      <point x="52.0" y="-236.0" type="curve" smooth="yes"/>
      <point x="252.0" y="464.0" type="line" smooth="yes"/>
      <point x="258.0" y="484.0"/>
      <point x="276.0" y="500.0"/>
    </contour>
  </outline>
</glyph>
<glyph name="uniE663" format="2">
  <advance width="550"/>
  <unicode hex="E663"/>
  <outline>
    <contour>
      <point x="450.0" y="500.0" type="curve" smooth="yes"/>
      <point x="480.0" y="500.0"/>
      <point x="500.0" y="476.0"/>
      <point x="500.0" y="450.0" type="curve" smooth="yes"/>
      <point x="500.0" y="445.0"/>
      <point x="499.0" y="440.0"/>
      <point x="498.0" y="436.0" type="curve" smooth="yes"/>
      <point x="298.0" y="-264.0" type="line" smooth="yes"/>
      <point x="292.0" y="-285.0"/>
      <point x="273.0" y="-300.0"/>
      <point x="250.0" y="-300.0" type="curve" smooth="yes"/>
      <point x="230.0" y="-300.0"/>
      <point x="213.0" y="-288.0"/>
      <point x="205.0" y="-272.0" type="curve" smooth="yes"/>
      <point x="55.0" y="28.0" type="line" smooth="yes"/>
      <point x="52.0" y="35.0"/>
      <point x="50.0" y="42.0"/>
      <point x="50.0" y="50.0" type="curve" smooth="yes"/>
      <point x="50.0" y="76.0"/>
      <point x="71.0" y="100.0"/>
      <point x="100.0" y="100.0" type="curve" smooth="yes"/>
      <point x="120.0" y="100.0"/>
      <point x="137.0" y="88.0"/>
      <point x="145.0" y="72.0" type="curve" smooth="yes"/>
      <point x="237.0" y="-113.0" type="line"/>
      <point x="402.0" y="464.0" type="line" smooth="yes"/>
      <point x="408.0" y="484.0"/>
      <point x="426.0" y="500.0"/>
    </contour>
  </outline>
</glyph>
<glyph name="uniE664" format="2">
  <advance width="500"/>
  <unicode hex="E664"/>
  <outline>
    <contour>
      <point x="100.0" y="0.0" type="curve" smooth="yes"/>
      <point x="72.0" y="0.0"/>
      <point x="50.0" y="22.0"/>
      <point x="50.0" y="50.0" type="curve" smooth="yes"/>
      <point x="50.0" y="64.0"/>
      <point x="56.0" y="76.0"/>
      <point x="65.0" y="85.0" type="curve" smooth="yes"/>
      <point x="179.0" y="200.0" type="line"/>
      <point x="128.0" y="250.0"/>
      <point x="50.0" y="324.0"/>
      <point x="50.0" y="425.0" type="curve" smooth="yes"/>
      <point x="50.0" y="600.0" type="line" smooth="yes"/>
      <point x="50.0" y="716.0"/>
      <point x="147.0" y="800.0"/>
      <point x="250.0" y="800.0" type="curve" smooth="yes"/>
      <point x="353.0" y="800.0"/>
      <point x="450.0" y="716.0"/>
      <point x="450.0" y="600.0" type="curve" smooth="yes"/>
      <point x="450.0" y="425.0" type="line" smooth="yes"/>
      <point x="450.0" y="324.0"/>
      <point x="372.0" y="250.0"/>
      <point x="321.0" y="200.0" type="curve"/>
      <point x="435.0" y="85.0" type="line" smooth="yes"/>
      <point x="444.0" y="76.0"/>
      <point x="450.0" y="64.0"/>
      <point x="450.0" y="50.0" type="curve" smooth="yes"/>
      <point x="450.0" y="22.0"/>
      <point x="428.0" y="0.0"/>
      <point x="400.0" y="0.0" type="curve" smooth="yes"/>
      <point x="386.0" y="0.0"/>
      <point x="374.0" y="6.0"/>
      <point x="365.0" y="15.0" type="curve" smooth="yes"/>
      <point x="250.0" y="129.0" type="line"/>
      <point x="135.0" y="15.0" type="line" smooth="yes"/>
      <point x="126.0" y="6.0"/>
      <point x="114.0" y="0.0"/>
    </contour>
    <contour>
      <point x="250.0" y="700.0" type="curve" smooth="yes"/>
      <point x="203.0" y="700.0"/>
      <point x="150.0" y="659.0"/>
      <point x="150.0" y="600.0" type="curve" smooth="yes"/>
      <point x="150.0" y="425.0" type="line" smooth="yes"/>
      <point x="150.0" y="386.0"/>
      <point x="202.0" y="320.0"/>
      <point x="250.0" y="271.0" type="curve"/>
      <point x="298.0" y="320.0"/>
      <point x="350.0" y="386.0"/>
      <point x="350.0" y="425.0" type="curve" smooth="yes"/>
      <point x="350.0" y="600.0" type="line" smooth="yes"/>
      <point x="350.0" y="659.0"/>
      <point x="297.0" y="700.0"/>
    </contour>
  </outline>
</glyph>
<glyph name="uniE665" format="2">
  <advance width="500"/>
  <unicode hex="E665"/>
  <outline>
    <contour>
      <point x="300.0" y="500.0" type="curve" smooth="yes"/>
      <point x="350.0" y="500.0" type="line" smooth="yes"/>
      <point x="378.0" y="500.0"/>
      <point x="400.0" y="478.0"/>
      <point x="400.0" y="450.0" type="curve" smooth="yes"/>
      <point x="400.0" y="422.0"/>
      <point x="378.0" y="400.0"/>
      <point x="350.0" y="400.0" type="curve" smooth="yes"/>
      <point x="300.0" y="400.0" type="line" smooth="yes"/>
      <point x="217.0" y="400.0"/>
      <point x="150.0" y="333.0"/>
      <point x="150.0" y="250.0" type="curve" smooth="yes"/>
      <point x="150.0" y="100.0" type="line"/>
      <point x="250.0" y="100.0" type="line" smooth="yes"/>
      <point x="353.0" y="100.0"/>
      <point x="450.0" y="16.0"/>
      <point x="450.0" y="-100.0" type="curve" smooth="yes"/>
      <point x="450.0" y="-250.0" type="line" smooth="yes"/>
      <point x="450.0" y="-278.0"/>
      <point x="428.0" y="-300.0"/>
      <point x="400.0" y="-300.0" type="curve" smooth="yes"/>
      <point x="250.0" y="-300.0" type="line" smooth="yes"/>
      <point x="147.0" y="-300.0"/>
      <point x="50.0" y="-216.0"/>
      <point x="50.0" y="-100.0" type="curve" smooth="yes"/>
      <point x="50.0" y="17.0"/>
      <point x="50.0" y="133.0"/>
      <point x="50.0" y="250.0" type="curve" smooth="yes"/>
      <point x="50.0" y="387.0"/>
      <point x="163.0" y="500.0"/>
    </contour>
    <contour>
      <point x="150.0" y="0.0" type="line"/>
      <point x="150.0" y="-100.0" type="line" smooth="yes"/>
      <point x="150.0" y="-159.0"/>
      <point x="203.0" y="-200.0"/>
      <point x="250.0" y="-200.0" type="curve" smooth="yes"/>
      <point x="350.0" y="-200.0" type="line"/>
      <point x="350.0" y="-100.0" type="line" smooth="yes"/>
      <point x="350.0" y="-41.0"/>
      <point x="297.0" y="0.0"/>
      <point x="250.0" y="0.0" type="curve" smooth="yes"/>
    </contour>
  </outline>
</glyph>
<glyph name="uniE666" format="2">
  <advance width="450"/>
  <unicode hex="E666"/>
  <outline>
    <contour>
      <point x="50.0" y="450.0" type="curve" smooth="yes"/>
      <point x="50.0" y="478.0"/>
      <point x="72.0" y="500.0"/>
      <point x="100.0" y="500.0" type="curve" smooth="yes"/>
      <point x="112.0" y="500.0"/>
      <point x="122.0" y="496.0"/>
      <point x="130.0" y="490.0" type="curve" smooth="yes"/>
      <point x="225.0" y="419.0" type="line"/>
      <point x="320.0" y="490.0" type="line" smooth="yes"/>
      <point x="328.0" y="496.0"/>
      <point x="339.0" y="500.0"/>
      <point x="350.0" y="500.0" type="curve" smooth="yes"/>
      <point x="377.0" y="500.0"/>
      <point x="400.0" y="478.0"/>
      <point x="400.0" y="450.0" type="curve" smooth="yes"/>
      <point x="400.0" y="434.0"/>
      <point x="392.0" y="419.0"/>
      <point x="380.0" y="410.0" type="curve" smooth="yes"/>
      <point x="308.0" y="356.0" type="line"/>
      <point x="330.0" y="340.0" type="line" smooth="yes"/>
      <point x="332.0" y="339.0"/>
      <point x="333.0" y="337.0"/>
      <point x="335.0" y="335.0" type="curve" smooth="yes"/>
      <point x="378.0" y="292.0"/>
      <point x="400.0" y="256.0"/>
      <point x="400.0" y="183.0" type="curve" smooth="yes"/>
      <point x="400.0" y="180.0"/>
      <point x="400.0" y="178.0"/>
      <point x="400.0" y="175.0" type="curve" smooth="yes"/>
      <point x="400.0" y="126.0"/>
      <point x="383.0" y="81.0"/>
      <point x="351.0" y="49.0" type="curve" smooth="yes"/>
      <point x="319.0" y="17.0"/>
      <point x="274.0" y="0.0"/>
      <point x="225.0" y="0.0" type="curve" smooth="yes"/>
      <point x="176.0" y="0.0"/>
      <point x="131.0" y="17.0"/>
      <point x="99.0" y="49.0" type="curve" smooth="yes"/>
      <point x="67.0" y="81.0"/>
      <point x="50.0" y="126.0"/>
      <point x="50.0" y="175.0" type="curve" smooth="yes"/>
      <point x="50.0" y="178.0"/>
      <point x="50.0" y="180.0"/>
      <point x="50.0" y="183.0" type="curve" smooth="yes"/>
      <point x="50.0" y="256.0"/>
      <point x="72.0" y="292.0"/>
      <point x="115.0" y="335.0" type="curve" smooth="yes"/>
      <point x="117.0" y="337.0"/>
      <point x="118.0" y="339.0"/>
      <point x="120.0" y="340.0" type="curve" smooth="yes"/>
      <point x="142.0" y="356.0" type="line"/>
      <point x="70.0" y="410.0" type="line" smooth="yes"/>
      <point x="58.0" y="419.0"/>
      <point x="50.0" y="434.0"/>
    </contour>
    <contour>
      <point x="225.0" y="294.0" type="line"/>
      <point x="183.0" y="263.0" type="line"/>
      <point x="163.0" y="242.0"/>
      <point x="157.0" y="231.0"/>
      <point x="154.0" y="222.0" type="curve" smooth="yes"/>
      <point x="151.0" y="213.0"/>
      <point x="150.0" y="200.0"/>
      <point x="150.0" y="175.0" type="curve" smooth="yes"/>
      <point x="150.0" y="149.0"/>
      <point x="158.0" y="132.0"/>
      <point x="170.0" y="120.0" type="curve" smooth="yes"/>
      <point x="182.0" y="108.0"/>
      <point x="199.0" y="100.0"/>
      <point x="225.0" y="100.0" type="curve" smooth="yes"/>
      <point x="251.0" y="100.0"/>
      <point x="268.0" y="108.0"/>
      <point x="280.0" y="120.0" type="curve" smooth="yes"/>
      <point x="292.0" y="132.0"/>
      <point x="300.0" y="149.0"/>
      <point x="300.0" y="175.0" type="curve" smooth="yes"/>
      <point x="300.0" y="200.0"/>
      <point x="299.0" y="213.0"/>
      <point x="296.0" y="222.0" type="curve" smooth="yes"/>
      <point x="293.0" y="231.0"/>
      <point x="287.0" y="242.0"/>
      <point x="267.0" y="263.0" type="curve"/>
    </contour>
  </outline>
</glyph>
<glyph name="uniE667" format="2">
  <advance width="500"/>
  <unicode hex="E667"/>
  <outline>
    <contour>
      <point x="400.0" y="500.0" type="curve" smooth="yes"/>
      <point x="428.0" y="500.0"/>
      <point x="450.0" y="478.0"/>
      <point x="450.0" y="450.0" type="curve" smooth="yes"/>
      <point x="450.0" y="400.0" type="line" smooth="yes"/>
      <point x="450.0" y="316.0"/>
      <point x="400.0" y="250.0"/>
      <point x="333.0" y="219.0" type="curve"/>
      <point x="344.0" y="198.0"/>
      <point x="350.0" y="175.0"/>
      <point x="350.0" y="150.0" type="curve" smooth="yes"/>
      <point x="350.0" y="68.0"/>
      <point x="282.0" y="0.0"/>
      <point x="200.0" y="0.0" type="curve" smooth="yes"/>
      <point x="100.0" y="0.0" type="line" smooth="yes"/>
      <point x="72.0" y="0.0"/>
      <point x="50.0" y="22.0"/>
      <point x="50.0" y="50.0" type="curve" smooth="yes"/>
      <point x="50.0" y="78.0"/>
      <point x="72.0" y="100.0"/>
      <point x="100.0" y="100.0" type="curve" smooth="yes"/>
      <point x="200.0" y="100.0" type="line" smooth="yes"/>
      <point x="228.0" y="100.0"/>
      <point x="250.0" y="122.0"/>
      <point x="250.0" y="150.0" type="curve" smooth="yes"/>
      <point x="250.0" y="178.0"/>
      <point x="228.0" y="200.0"/>
      <point x="200.0" y="200.0" type="curve" smooth="yes"/>
      <point x="173.0" y="200.0"/>
      <point x="151.0" y="223.0"/>
      <point x="151.0" y="250.0" type="curve" smooth="yes"/>
      <point x="151.0" y="277.0"/>
      <point x="173.0" y="300.0"/>
      <point x="200.0" y="300.0" type="curve" smooth="yes"/>
      <point x="250.0" y="300.0" type="line" smooth="yes"/>
      <point x="297.0" y="300.0"/>
      <point x="350.0" y="341.0"/>
      <point x="350.0" y="400.0" type="curve" smooth="yes"/>
      <point x="350.0" y="450.0" type="line" smooth="yes"/>
      <point x="350.0" y="478.0"/>
      <point x="372.0" y="500.0"/>
    </contour>
  </outline>
</glyph>
<glyph name="uniE669" format="2">
  <advance width="600"/>
  <unicode hex="E669"/>
  <outline>
    <contour>
      <point x="300.0" y="800.0" type="curve" smooth="yes"/>
      <point x="328.0" y="800.0"/>
      <point x="350.0" y="778.0"/>
      <point x="350.0" y="750.0" type="curve" smooth="yes"/>
      <point x="350.0" y="500.0" type="line"/>
      <point x="453.0" y="500.0"/>
      <point x="550.0" y="416.0"/>
      <point x="550.0" y="300.0" type="curve" smooth="yes"/>
      <point x="550.0" y="200.0" type="line" smooth="yes"/>
      <point x="550.0" y="84.0"/>
      <point x="453.0" y="0.0"/>
      <point x="350.0" y="0.0" type="curve" smooth="yes"/>
      <point x="250.0" y="0.0" type="line" smooth="yes"/>
      <point x="147.0" y="0.0"/>
      <point x="50.0" y="84.0"/>
      <point x="50.0" y="200.0" type="curve" smooth="yes"/>
      <point x="50.0" y="300.0" type="line" smooth="yes"/>
      <point x="50.0" y="416.0"/>
      <point x="147.0" y="500.0"/>
      <point x="250.0" y="500.0" type="curve"/>
      <point x="250.0" y="750.0" type="line" smooth="yes"/>
      <point x="250.0" y="778.0"/>
      <point x="272.0" y="800.0"/>
    </contour>
    <contour>
      <point x="250.0" y="400.0" type="line"/>
      <point x="203.0" y="400.0"/>
      <point x="150.0" y="359.0"/>
      <point x="150.0" y="300.0" type="curve" smooth="yes"/>
      <point x="150.0" y="200.0" type="line" smooth="yes"/>
      <point x="150.0" y="141.0"/>
      <point x="203.0" y="100.0"/>
      <point x="250.0" y="100.0" type="curve"/>
    </contour>
    <contour>
      <point x="350.0" y="400.0" type="curve"/>
      <point x="350.0" y="100.0" type="line"/>
      <point x="397.0" y="100.0"/>
      <point x="450.0" y="141.0"/>
      <point x="450.0" y="200.0" type="curve" smooth="yes"/>
      <point x="450.0" y="300.0" type="line" smooth="yes"/>
      <point x="450.0" y="359.0"/>
      <point x="397.0" y="400.0"/>
    </contour>
  </outline>
</glyph>
<glyph name="uniE670" format="2">
  <advance width="200"/>
  <unicode hex="E670"/>
  <outline>
    <contour>
      <point x="100.0" y="500.0" type="curve" smooth="yes"/>
      <point x="128.0" y="500.0"/>
      <point x="150.0" y="478.0"/>
      <point x="150.0" y="450.0" type="curve" smooth="yes"/>
      <point x="150.0" y="50.0" type="line" smooth="yes"/>
      <point x="150.0" y="22.0"/>
      <point x="128.0" y="0.0"/>
      <point x="100.0" y="0.0" type="curve" smooth="yes"/>
      <point x="72.0" y="0.0"/>
      <point x="50.0" y="22.0"/>
      <point x="50.0" y="50.0" type="curve" smooth="yes"/>
      <point x="50.0" y="450.0" type="line" smooth="yes"/>
      <point x="50.0" y="478.0"/>
      <point x="72.0" y="500.0"/>
    </contour>
  </outline>
</glyph>
<glyph name="uniE671" format="2">
  <advance width="500"/>
  <unicode hex="E671"/>
  <outline>
    <contour>
      <point x="100.0" y="0.0" type="curve" smooth="yes"/>
      <point x="70.0" y="0.0"/>
      <point x="50.0" y="24.0"/>
      <point x="50.0" y="50.0" type="curve" smooth="yes"/>
      <point x="50.0" y="56.0"/>
      <point x="51.0" y="63.0"/>
      <point x="53.0" y="68.0" type="curve" smooth="yes"/>
      <point x="203.0" y="468.0" type="line" smooth="yes"/>
      <point x="210.0" y="486.0"/>
      <point x="227.0" y="500.0"/>
      <point x="250.0" y="500.0" type="curve" smooth="yes"/>
      <point x="273.0" y="500.0"/>
      <point x="290.0" y="487.0"/>
      <point x="297.0" y="468.0" type="curve" smooth="yes"/>
      <point x="447.0" y="68.0" type="line" smooth="yes"/>
      <point x="449.0" y="63.0"/>
      <point x="450.0" y="56.0"/>
      <point x="450.0" y="50.0" type="curve" smooth="yes"/>
      <point x="450.0" y="24.0"/>
      <point x="430.0" y="0.0"/>
      <point x="400.0" y="0.0" type="curve" smooth="yes"/>
      <point x="379.0" y="0.0"/>
      <point x="360.0" y="13.0"/>
      <point x="353.0" y="32.0" type="curve" smooth="yes"/>
      <point x="250.0" y="308.0" type="line"/>
      <point x="147.0" y="32.0" type="line" smooth="yes"/>
      <point x="140.0" y="13.0"/>
      <point x="121.0" y="0.0"/>
    </contour>
  </outline>
</glyph>
<glyph name="uniE673" format="2">
  <advance width="400"/>
  <unicode hex="E673"/>
  <outline>
    <contour>
      <point x="100.0" y="500.0" type="curve" smooth="yes"/>
      <point x="114.0" y="500.0"/>
      <point x="126.0" y="494.0"/>
      <point x="135.0" y="485.0" type="curve"/>
      <point x="155.0" y="494.0"/>
      <point x="177.0" y="500.0"/>
      <point x="200.0" y="500.0" type="curve" smooth="yes"/>
      <point x="282.0" y="500.0"/>
      <point x="350.0" y="432.0"/>
      <point x="350.0" y="350.0" type="curve" smooth="yes"/>
      <point x="350.0" y="268.0"/>
      <point x="282.0" y="200.0"/>
      <point x="200.0" y="200.0" type="curve" smooth="yes"/>
      <point x="183.0" y="200.0"/>
      <point x="166.0" y="203.0"/>
      <point x="150.0" y="209.0" type="curve"/>
      <point x="150.0" y="200.0" type="line" smooth="yes"/>
      <point x="150.0" y="141.0"/>
      <point x="203.0" y="100.0"/>
      <point x="250.0" y="100.0" type="curve" smooth="yes"/>
      <point x="300.0" y="100.0" type="line" smooth="yes"/>
      <point x="328.0" y="100.0"/>
      <point x="350.0" y="78.0"/>
      <point x="350.0" y="50.0" type="curve" smooth="yes"/>
      <point x="350.0" y="22.0"/>
      <point x="328.0" y="0.0"/>
      <point x="300.0" y="0.0" type="curve" smooth="yes"/>
      <point x="250.0" y="0.0" type="line" smooth="yes"/>
      <point x="147.0" y="0.0"/>
      <point x="50.0" y="84.0"/>
      <point x="50.0" y="200.0" type="curve" smooth="yes"/>
      <point x="50.0" y="283.0"/>
      <point x="50.0" y="367.0"/>
      <point x="50.0" y="450.0" type="curve" smooth="yes"/>
      <point x="50.0" y="478.0"/>
      <point x="72.0" y="500.0"/>
    </contour>
    <contour>
      <point x="200.0" y="400.0" type="curve" smooth="yes"/>
      <point x="172.0" y="400.0"/>
      <point x="150.0" y="378.0"/>
      <point x="150.0" y="350.0" type="curve" smooth="yes"/>
      <point x="150.0" y="322.0"/>
      <point x="172.0" y="300.0"/>
      <point x="200.0" y="300.0" type="curve" smooth="yes"/>
      <point x="228.0" y="300.0"/>
      <point x="250.0" y="322.0"/>
      <point x="250.0" y="350.0" type="curve" smooth="yes"/>
      <point x="250.0" y="378.0"/>
      <point x="228.0" y="400.0"/>
    </contour>
  </outline>
</glyph>
<glyph name="uniE676" format="2">
  <advance width="500"/>
  <unicode hex="E676"/>
  <outline>
    <contour>
      <point x="400.0" y="500.0" type="curve" smooth="yes"/>
      <point x="428.0" y="500.0"/>
      <point x="450.0" y="478.0"/>
      <point x="450.0" y="450.0" type="curve" smooth="yes"/>
      <point x="450.0" y="422.0"/>
      <point x="428.0" y="400.0"/>
      <point x="400.0" y="400.0" type="curve" smooth="yes"/>
      <point x="353.0" y="400.0"/>
      <point x="300.0" y="359.0"/>
      <point x="300.0" y="300.0" type="curve" smooth="yes"/>
      <point x="300.0" y="200.0" type="line" smooth="yes"/>
      <point x="300.0" y="84.0"/>
      <point x="203.0" y="0.0"/>
      <point x="100.0" y="0.0" type="curve" smooth="yes"/>
      <point x="72.0" y="0.0"/>
      <point x="50.0" y="22.0"/>
      <point x="50.0" y="50.0" type="curve" smooth="yes"/>
      <point x="50.0" y="78.0"/>
      <point x="72.0" y="100.0"/>
      <point x="100.0" y="100.0" type="curve" smooth="yes"/>
      <point x="147.0" y="100.0"/>
      <point x="200.0" y="141.0"/>
      <point x="200.0" y="200.0" type="curve" smooth="yes"/>
      <point x="200.0" y="300.0" type="line" smooth="yes"/>
      <point x="200.0" y="416.0"/>
      <point x="297.0" y="500.0"/>
    </contour>
  </outline>
</glyph>
<glyph name="uniE67A" format="2">
  <advance width="400"/>
  <unicode hex="E67A"/>
  <outline>
    <contour>
      <point x="300.0" y="500.0" type="curve" smooth="yes"/>
      <point x="328.0" y="500.0"/>
      <point x="350.0" y="478.0"/>
      <point x="350.0" y="450.0" type="curve" smooth="yes"/>
      <point x="350.0" y="422.0"/>
      <point x="328.0" y="400.0"/>
      <point x="300.0" y="400.0" type="curve" smooth="yes"/>
      <point x="217.0" y="400.0"/>
      <point x="150.0" y="333.0"/>
      <point x="150.0" y="250.0" type="curve" smooth="yes"/>
      <point x="150.0" y="50.0" type="line" smooth="yes"/>
      <point x="150.0" y="22.0"/>
      <point x="128.0" y="0.0"/>
      <point x="100.0" y="0.0" type="curve" smooth="yes"/>
      <point x="72.0" y="0.0"/>
      <point x="50.0" y="22.0"/>
      <point x="50.0" y="50.0" type="curve" smooth="yes"/>
      <point x="50.0" y="250.0" type="line" smooth="yes"/>
      <point x="50.0" y="387.0"/>
      <point x="163.0" y="500.0"/>
    </contour>
  </outline>
</glyph>
<glyph name="uniE67B" format="2">
  <advance width="400"/>
  <unicode hex="E67B"/>
  <outline>
    <contour>
      <point x="200.0" y="500.0" type="curve" smooth="yes"/>
      <point x="300.0" y="500.0" type="line" smooth="yes"/>
      <point x="328.0" y="500.0"/>
      <point x="350.0" y="478.0"/>
      <point x="350.0" y="450.0" type="curve" smooth="yes"/>
      <point x="350.0" y="436.0"/>
      <point x="344.0" y="424.0"/>
      <point x="335.0" y="415.0" type="curve"/>
      <point x="344.0" y="395.0"/>
      <point x="350.0" y="373.0"/>
      <point x="350.0" y="350.0" type="curve" smooth="yes"/>
      <point x="350.0" y="268.0"/>
      <point x="282.0" y="200.0"/>
      <point x="200.0" y="200.0" type="curve" smooth="yes"/>
      <point x="183.0" y="200.0"/>
      <point x="166.0" y="203.0"/>
      <point x="150.0" y="209.0" type="curve"/>
      <point x="150.0" y="50.0" type="line" smooth="yes"/>
      <point x="150.0" y="22.0"/>
      <point x="128.0" y="0.0"/>
      <point x="100.0" y="0.0" type="curve" smooth="yes"/>
      <point x="72.0" y="0.0"/>
      <point x="50.0" y="22.0"/>
      <point x="50.0" y="50.0" type="curve" smooth="yes"/>
      <point x="50.0" y="350.0" type="line" smooth="yes"/>
      <point x="50.0" y="435.0"/>
      <point x="117.0" y="500.0"/>
    </contour>
    <contour>
      <point x="200.0" y="400.0" type="curve" smooth="yes"/>
      <point x="172.0" y="400.0"/>
      <point x="150.0" y="378.0"/>
      <point x="150.0" y="350.0" type="curve" smooth="yes"/>
      <point x="150.0" y="322.0"/>
      <point x="172.0" y="300.0"/>
      <point x="200.0" y="300.0" type="curve" smooth="yes"/>
      <point x="228.0" y="300.0"/>
      <point x="250.0" y="322.0"/>
      <point x="250.0" y="350.0" type="curve" smooth="yes"/>
      <point x="250.0" y="378.0"/>
      <point x="228.0" y="400.0"/>
    </contour>
  </outline>
</glyph>
